<svg xmlns="http://www.w3.org/2000/svg" viewBox="0 0 600 500"><defs><style>.cls-1{isolation:isolate;}.cls-2{fill:#fc5f3e;}.cls-3{fill:#2e88e8;}.cls-4{fill:#7cbeff;}.cls-5{fill:#cfdbe6;mix-blend-mode:multiply;}.cls-6{fill:#224172;}</style></defs><title>schedule</title><g class="cls-1"><g id="banners"><path class="cls-2" d="M426.4,271.14a2.74,2.74,0,0,1-2.55-2.62,106.87,106.87,0,0,0-1.29-14.6c-.19-1.16-.42-2.32-.66-3.49l-.42-2.18c-.21-.23-.43-.46-.67-.68a4.1,4.1,0,0,1-1.35-3,4.58,4.58,0,0,1,1.38-3.2,1.53,1.53,0,0,1,1.5-1.13h.2a4.61,4.61,0,0,1,1.63-.3,4.86,4.86,0,0,1,1,.11c9.54,2.18,20.08,5.34,24.24,15.28a9.87,9.87,0,0,1,.58,1.86,2.59,2.59,0,0,1,1.57.84v0a3.35,3.35,0,0,1,.42.51,2.89,2.89,0,0,1,.41,1.52,3,3,0,0,1-1.45,2.5,2.72,2.72,0,0,1-1.4.39,3.63,3.63,0,0,1-1.48-.35,9.43,9.43,0,0,1-1.6,1,125.75,125.75,0,0,1-11.78,4.65c-2.47.88-5,1.79-7.48,2.78A2.17,2.17,0,0,1,426.4,271.14Z"/><path class="cls-3" d="M227.48,337.11c-.34,0-.71,0-1.12-.06a55.78,55.78,0,0,1-6.45-1c-1.61-.3-3.27-.62-4.89-.82s-3.47-.4-5.16-.54c-3.52-.23-7.1-.35-10.62-.35-1.66,0-3.35,0-5,.08H194a2.81,2.81,0,0,1-1.39-.34l-.47,0c-4.06.25-8.27.5-12.38.5-1.71,0-3.28,0-4.79-.13a2.6,2.6,0,0,1-2.46,1.57,2.72,2.72,0,0,1-2.81-2.7c0-1.4-.11-2.95-.22-4.6-.28-4.13-.6-8.82.65-12.46-.14-1.5-.3-3.18-.39-4.8-.06-1.06-.15-2.15-.24-3.25-.3-3.55-.61-7.22.07-10.68a62.81,62.81,0,0,1-10.29-1.79,6,6,0,0,1-.74.05,5.53,5.53,0,0,1-3.75-1.46l-.07,0a2.82,2.82,0,0,1-1.88-2.43,2.91,2.91,0,0,1,1.15-2.61c.28-.77.58-1.55.88-2.32.89-2.41,1.77-4.95,2.61-7.4C161,269.48,164.58,259,171.45,251c3.82-4.45,9.12-7.46,16.19-9.19a60.24,60.24,0,0,1,14-2.16,26.2,26.2,0,0,1,5.22.5H207c2.14-.18,4.58-.39,7-.39,4.75,0,8.31.84,11.17,2.66a6,6,0,0,1,1.89-.3,6.51,6.51,0,0,1,.88.06c3.62.52,7,3.59,9.77,6.06l.88.78a56.89,56.89,0,0,1,9.8,11.35,4.15,4.15,0,0,1,1.34.88,57.61,57.61,0,0,1,7.13,8.87l.21.3c.71,1,1.49,2.09,2.33,3.1a13.37,13.37,0,0,1,1.93,1.31c.35.28.7.54,1,.77s.84.49,1.32.74c1.49.79,3.18,1.68,3.61,3.37A2.79,2.79,0,0,1,266,282.8a3,3,0,0,1-.77.32c-.24.61-.54,1.21-.82,1.8l-.32.65-.64,1.34a60.36,60.36,0,0,1-6.14,10.94,2.7,2.7,0,0,1-.56.56,2.06,2.06,0,0,1-.55,1.25,2.6,2.6,0,0,1-1.87.83h0a1.83,1.83,0,0,1-1.77-1.17A11.35,11.35,0,0,0,251,296.7a14.62,14.62,0,0,0-3.06-1.67,14.51,14.51,0,0,1-2.81-1.53,11.61,11.61,0,0,1-3.19-3.77l-.34-.3c-.88-.76-1.78-1.55-2.75-2.25-.53-.37-1.06-.72-1.58-1.07a25.54,25.54,0,0,1-3.71-2.82c-1.48,6.67-2.75,14-3.89,22.42-.49,6.27-1.24,12.56-2.3,19.18l-.09.55-.23-.07,0,.14c0,.16.07.32.1.48s.08.48.12.7.11.59.15.87c.21.21.41.43.63.63.39.37.78.69,1.16,1a6.73,6.73,0,0,1,2.63,3.33,3.16,3.16,0,0,1-.83,3.14A4.59,4.59,0,0,1,227.48,337.11Z"/><path class="cls-3" d="M422.39,271.2a1.79,1.79,0,0,1-1.36-.63c-1.3-1.51-2.43-2.86-3.43-4.13l-1.36-.77c-4.88-2.77-9.94-5.63-13.23-9.9a2.71,2.71,0,0,1-.43-.78,2.36,2.36,0,0,1-1.61-1.25,1.93,1.93,0,0,1,.24-2c2-2.87,4.92-5.37,9.16-7.88q.53-.31,1.14-.72c1.89-1.2,4.23-2.7,6.39-2.7a3.93,3.93,0,0,1,1.21.18c2.7.86,2.9,4,3,6.31,0,.32,0,.62.07.9.14,1.68.26,3.36.38,5,.27,3.79.55,7.7,1.18,11.54a2.89,2.89,0,0,1,0,.83l.11.12a2.18,2.18,0,0,1,.61,1.33,4.93,4.93,0,0,1-.11,1,1.67,1.67,0,0,1-.17.44v0a1.72,1.72,0,0,1,.07,1.82,2.25,2.25,0,0,1-1.93,1.2Z"/><path class="cls-4" d="M166,191.23a2.45,2.45,0,0,1-1.82-.75c-.35-.39-.72-.78-1.08-1.16-.73-.77-1.48-1.57-2.18-2.4a3.44,3.44,0,0,1-.9-3.52,2.56,2.56,0,0,1,2.54-1.86,8.4,8.4,0,0,1,4.29,1.75,3.48,3.48,0,0,1,.28.24,12.06,12.06,0,0,1,1.22-1.06,2,2,0,0,1,1.22-.45,2.05,2.05,0,0,1,1.71,1,2.59,2.59,0,0,1,.25,2.44,17.79,17.79,0,0,1-3.12,4.28l-.62.69a2.36,2.36,0,0,1-1.79.76Z"/><path class="cls-4" d="M154.83,141.68a1.68,1.68,0,0,1-1.55-1.06,2,2,0,0,1,.31-2,25,25,0,0,1-.42-5.17,3.31,3.31,0,0,1,0-1.5v-.38q0-.47-.06-1a11.82,11.82,0,0,1,.43-5.17l.11-.26a1.29,1.29,0,0,1,.09-.2l.76-1.48.09.8a1.51,1.51,0,0,1,.53-.09,1.73,1.73,0,0,1,.32,0,2.09,2.09,0,0,1,.43.11,7.65,7.65,0,0,1,3.6-.84l.72-.06c.56,0,1.15-.12,1.75-.2a27.88,27.88,0,0,1,3.37-.29c3.24,0,4.86,1.48,4.95,4.53,0,1.61,0,3.24,0,4.83,0,.79,0,1.58,0,2.38v.58a9.8,9.8,0,0,1-.22,2.6,2.2,2.2,0,0,1-.11,2,2.93,2.93,0,0,1-2.49,1.57h0a2.06,2.06,0,0,1-.35,0c-.57-.08-1.13-.18-1.69-.28s-1.26-.22-1.89-.3c-.24,0-.55,0-.83,0-.57.05-1.14.12-1.73.19a27.83,27.83,0,0,1-3.43.29h-.32a15.3,15.3,0,0,1-2.15.36Z"/><path class="cls-2" d="M371.6,319.69a3.28,3.28,0,0,1-1-.17,5.81,5.81,0,0,1-1.51-.79l-.46,0c-.58,0-1.17,0-1.75,0l-2.28,0c-.76,0-1.51,0-2.26,0a24.81,24.81,0,0,0-4,.27l-.39,0a2.79,2.79,0,0,1-2.25-1.13,1.91,1.91,0,0,1-.17-1.84c.75-1.83,1.61-3.64,2.44-5.38.39-.82.78-1.64,1.16-2.47.55-1.17,1.2-2.33,1.84-3.44l.22-.4s.24-1,.29-1.21a2.74,2.74,0,0,1,1.26-1.72c.24-.52.42-.94.57-1.33a1.23,1.23,0,0,1,1.16-.83,1.22,1.22,0,0,1,1.14.84,5.74,5.74,0,0,1,.27,1.12,2.54,2.54,0,0,1,1.19,1.21,67,67,0,0,0,4.31,8l.46.7a9.61,9.61,0,0,1,1.43,2.7,3.21,3.21,0,0,1,1.21,3.53,3,3,0,0,1-2.82,2.35Z"/><path class="cls-2" d="M89.65,271.93a25.17,25.17,0,0,1-8.51-1.6l-.69-.24c-2.2-.78-4.91-1.74-6.43-3.57a2.49,2.49,0,0,1-2-1.81c-1.1-5.36-.86-9.34.73-12.17,1.16-2.07,3.69-4.17,6.28-4.17a4.33,4.33,0,0,1,1.57.29,1.67,1.67,0,0,1,.72.51,2.71,2.71,0,0,1,2.23,1.69,1.32,1.32,0,0,1,.08.33,28.31,28.31,0,0,0,7.29,1.32,10.52,10.52,0,0,0,1.75-.14c.78-2.24,2.91-5.17,5.54-5.17a3.68,3.68,0,0,1,1.6.38,15.93,15.93,0,0,1,1.43.8,4.63,4.63,0,0,1,3,2.46,11.34,11.34,0,0,1,3,6.31c.63,4.93.13,8-4.32,11.26A10.93,10.93,0,0,1,97,270.62h0l-.48,0a17.59,17.59,0,0,1-3.86,1.1A20.1,20.1,0,0,1,89.65,271.93Z"/><path class="cls-4" d="M142.68,271.31a3.43,3.43,0,0,1,0-6.86,3.45,3.45,0,0,1,3.43,3.43,3.37,3.37,0,0,1-1,2.42A3.41,3.41,0,0,1,142.68,271.31Z"/><path class="cls-2" d="M249,320a3.43,3.43,0,1,1,2.42-5.85,3.45,3.45,0,0,1,0,4.85A3.4,3.4,0,0,1,249,320Z"/><path class="cls-2" d="M277.21,127.67a3.43,3.43,0,1,1,2.43-5.85,3.45,3.45,0,0,1,0,4.85A3.4,3.4,0,0,1,277.21,127.67Z"/><path class="cls-2" d="M157.45,379.09a3.4,3.4,0,0,1-2.43-1,3.44,3.44,0,0,1,0-4.85,3.43,3.43,0,1,1,2.43,5.85Z"/><path class="cls-2" d="M492.09,244.53a3.4,3.4,0,0,1-2.43-1,3.45,3.45,0,0,1,0-4.85,3.43,3.43,0,1,1,2.43,5.85Z"/><path class="cls-4" d="M442.07,403.05a3.43,3.43,0,1,1,2.42-1A3.41,3.41,0,0,1,442.07,403.05Z"/><path class="cls-4" d="M188.22,113.34a5.16,5.16,0,1,1,3.64-1.51A5.14,5.14,0,0,1,188.22,113.34Z"/><path class="cls-4" d="M245.32,180.79c-1.69,0-3.39,0-5.09,0s-3.39-.05-5.08-.05-3.17,0-4.54.07h0a2.94,2.94,0,0,1-2.15-.93,2.76,2.76,0,0,1-.79-2,105.45,105.45,0,0,0-.75-17.38,2.45,2.45,0,0,1,.61-1.89,3.37,3.37,0,0,1,2.34-1.14c2.49-.1,5.07-.15,7.67-.15,2.06,0,4.2,0,6.36.09.49,0,1,0,1.47,0a16.9,16.9,0,0,1,5.27.58,33.94,33.94,0,0,1,10.5-1.32c1.24,0,2.47,0,3.68.05,1,0,2,0,3,0,3.41,0,6.82.06,10.22.1,3.64,0,7.28.09,10.92.1h.82c7.42,0,15-.39,22.26-.76,6.54-.34,13.3-.69,20-.76,2.53,0,5.07,0,7.6,0q5.26,0,10.54,0c8.47-.36,16.36-.54,24.07-.54,4.64,0,9.23.07,13.64.2a8,8,0,0,1,1.85.28c3.41-.08,6.22-.17,8.83-.29,2-.08,4-.29,6.21-.52,2.86-.29,5.82-.6,8.7-.6a31.26,31.26,0,0,1,4,.24,2.59,2.59,0,0,1,2.17-1.17,13.12,13.12,0,0,1,3.48.44,2.17,2.17,0,0,1,1,.53,1.75,1.75,0,0,1,1.48,1.71c.12,2,.12,4.08.12,6.05a61.52,61.52,0,0,0,.59,10.17,3.78,3.78,0,0,1-.13,1.76,2.75,2.75,0,0,1-.2,2.44,2.7,2.7,0,0,1-2.29,1.42c-.82,0-1.73.09-2.68.16-1.27.1-2.57.2-3.88.2h0a12.85,12.85,0,0,1-4.86-.77c-5.93.55-12,.89-17.82,1.21-3.51.2-7.15.4-10.73.65l-2.39.18-1.2.09c-5.51.15-11.1.39-16.5.62-4.92.2-10,.42-15,.57l-1-.1a53.47,53.47,0,0,0-5.85-.45h-.12l-.93,0a7.72,7.72,0,0,0-3.14.55l-.27.13-.24-.19a6.2,6.2,0,0,1-1.41-1.52,48.42,48.42,0,0,1-6.85.59,19.72,19.72,0,0,1-6.53-1c-4.05.24-8.84.51-13.77.71-6.1.25-12.31.46-18.31.66l-8.71.29c-1.47.05-3,.16-4.66.28-2.44.18-5,.36-7.46.36a29.29,29.29,0,0,1-8-.94,29.64,29.64,0,0,1-7,.71c-.78,0-1.52,0-2.18.07C250.19,180.73,248,180.79,245.32,180.79Z"/><path class="cls-5" d="M140.87,217.65c0,4.34,0,8.71-.18,13-.12,2.59-.09,5.26-2.46,6.89-.13.08-.27.14-.4.21a3.85,3.85,0,0,1-2.2,1.67L123,243.31c-.11,3.05-.63,6.1-2.74,8.33v.13c-.5,9-6.74,16.82-14.44,21.13-8.42,4.72-19,4.46-27.63.37a31.33,31.33,0,0,1-11.21-8.92c-2-2.43-4.49-5.79-4-9.08a.31.31,0,0,1,.3-.22c2.49.16,4.49,1.91,6.53,3.24,2.89,1.89,5.79,3.72,8.84,5.36,6.36,3.41,14.39,5,21.13,1.7,5.78-2.79,11-9.34,13.17-15.33,2.88-8.12-1.22-15.77-4.92-22.83a.72.72,0,0,1,.39-1.05c-.93-1.07-1.88-2.11-2.81-3.13a.49.49,0,0,1,.47-.81c5.59,1.5,9.55,5.08,12.84,9.65,2.1-.08,4.2-.16,6.3-.2,1.35,0,4-.62,5.78-.53.6-13.81,1.32-27.62,1.51-41.44.07-5.06,7.55-5,7.8,0C140.73,199,140.93,208.3,140.87,217.65ZM220,205.6a12.36,12.36,0,0,1-.79-8.93,28.68,28.68,0,0,0,1.19-6.48c0-1.63-2.54-2.51-3.24-.88l-.78,1.76a2.11,2.11,0,0,0-2.09,1.27c-3.07,7.33-9.71,11.45-13.64,18.09-1.05,1.78-2,3.65-2.93,5.47-.49.91-1,1.82-1.49,2.71a11,11,0,0,1-2.65-1.89c-2.25-1.87-3.86-4.67-6.66-5.72a.09.09,0,0,0-.11.06c-.86,3.92,3,8.43,5.88,10.71,3.61,2.87,6.22,1.31,8.31-2.16,2.92-4.87,5.09-10.62,8.85-14.89-1,2.06,2.07,3.82,3.23,1.77.26-.46.5-.93.76-1.39.13.69.29,1.39.47,2.1,1.57,6.21,3,17.49-6.32,18.36a2.09,2.09,0,0,0-1.28.59,4.71,4.71,0,0,0-.63-.33.32.32,0,0,0-.35.14c-1.8,2.78-.66,7.64.68,10.43a7.55,7.55,0,0,0,7.42,4.51,2.12,2.12,0,0,0,1.06-3.92,13.09,13.09,0,0,1-4.77-7.46c6.4.54,11.61-5.05,12.45-11.43C223.17,213.58,221.73,209.69,220,205.6Zm107.24,72.88c-7.77-.05-15.46.2-23.2.57.4-1.77.79-3.53,1.17-5.3.54-2.52,1.13-5.1,1.44-7.66.38-3.21-.27-6.19-.17-9.37a.79.79,0,0,0-1.55-.21c-1.23,4.39-2.95,8.26-3.84,12.82a88.32,88.32,0,0,1-3.22,12.2c-2.66,7.66-7.26,19.19-15.31,22.64-9,3.87-18.54-5.58-26.28-9.07-3.88-1.74-7.85-3.41-11.31-5.93-3.62-2.64-8.95-6.61-10-11.17-.68-3-5.08-2.79-5.87,0a178.36,178.36,0,0,0-6,30.1,76.19,76.19,0,0,0-.1,15.25,32.26,32.26,0,0,0,.87,5.35,20.88,20.88,0,0,0,1.69,3.39c-2.44.11-5.79-.58-7.51-.65-3.42-.13-6.85-.31-10.27-.36-6.45-.1-13.65-.39-19.87,1.47a.93.93,0,0,0,0,1.78c.66.26,1.34.48,2,.69a.56.56,0,0,0,.22,1c8.34,2,16.6,3.5,25.09,4.75,3.36.49,7.47.7,10.34,2.69a7.41,7.41,0,0,1,1.38,1.3c.6,1.35,1.28,2.67,1.78,3.92,1.11,2.73,2.24,5.46,3.37,8.19,2,5,4.07,9.91,6.21,14.81,3.76,9,7.55,18,12,26.57a2.2,2.2,0,0,0,3.55.37c1.77,1.06,4.71-1.08,3.4-3.44-4.89-8.86-6.4-18.32-9.2-27.89-2.7-9.23-8.34-17.33-10.43-26.77-.95-4.28-2.94-8-4.08-12.21-1.23-4.56-.44-9.6.11-14.22.64-5.32,1.46-10.63,2.21-15.94.26-1.84.63-3.8.78-5.76a40.21,40.21,0,0,0,13.53,9.92c10,4.46,20.57,14,32.33,10.57,9.67-2.81,15.31-14.52,18.47-23.18.2-.55.39-1.11.58-1.68a72,72,0,0,0,13,.62c4,0,8.24.43,11.9-1.27a2.93,2.93,0,0,0,1.48-2.58c0-.27,0-.54,0-.81,0,0,0-.06,0-.1C330.73,283.19,330.51,278.49,327.24,278.48ZM212,361.7c-5-5-10.19-9.89-14.82-15.3h0a1.23,1.23,0,0,0-.72-.34c-.14-.17-.26-.34-.4-.5a.7.7,0,0,0-1.18.31,14.11,14.11,0,0,0,1.42,8.81,29,29,0,0,0,2.89,4.68c.57,4.36.57,8.9.91,12.85.78,9,1.53,18,2.15,27A2.18,2.18,0,0,0,205,401.3a4.75,4.75,0,0,0,1.52-.79A2.11,2.11,0,0,0,209.1,399a157.09,157.09,0,0,0,2.32-17.69c.35-5,1.16-10.73-.72-15.49A2.4,2.4,0,0,0,212,361.7Zm117.42,2a27.1,27.1,0,0,0-4.37-9.81c-1.55-2.19-3.52-3.38-5.52-4.72a29.59,29.59,0,0,0-3-2.24l0,0a1,1,0,0,0-1.24,1.61,39,39,0,0,1,8.38,15.14s0,.06,0,.08a20,20,0,0,1-3.18,14.4c-2.9,4.55-8,6.48-13.18,6.45a20.46,20.46,0,0,1-8-1.93,62.42,62.42,0,0,0-7.95-4.77,2.11,2.11,0,0,0-1.7.09,12.51,12.51,0,0,0-2.91-3.22.22.22,0,0,0-.32.13c-1.26,3.31-.22,7.72.57,11a11.17,11.17,0,0,0,.5,1.57c-6.19,0-12.87-1.91-18.25,1.44a.57.57,0,0,0,.14,1c4.9,1.77,11.11,2.48,16.31,2.92,4.2.35,9.47.73,12.68-2.46a2.71,2.71,0,0,0,.84-1.85c8.91,4.29,19.68,3.85,26-5.18a23.25,23.25,0,0,0,3.95-9.73A21.75,21.75,0,0,0,329.41,363.73ZM304.21,344a57.35,57.35,0,0,0-2.51-8.36c-.55-1.66-3.36-2.5-4.2-.55-.95,2.2-.52,4-1.07,6.25-1,4.2-4.94,6.26-8.8,6.43-6.45.27-13.6-.78-19.82,1.35a1,1,0,0,0,0,1.95c4,1.56,8.51,1.56,12.71,1.9,3.87.32,9,1.25,12.65-.5a15.88,15.88,0,0,0,5.53-5.11C300.64,349.22,304.79,347.39,304.21,344ZM377,318.17c-2.21-6.59-5.53-13.7-10-19.07-1.9-2.29-5.67.18-4.88,2.84.86,2.88,2.49,5.25,4,7.82.84,1.43,1.94,3.1,2.78,4.82l.51,1.16c.05.11.09.22.13.33-2.39.22-4.78.5-7.17.86-2.58.38-5.35.79-7.11,2.84a.86.86,0,0,0,0,1.19c4.26,3.49,13,1.52,18,1a4.09,4.09,0,0,0,1.49-.45A2.49,2.49,0,0,0,377,318.17Zm78.77,53.15a45.76,45.76,0,0,1-15,6.72,48.56,48.56,0,0,1-9.92,1.82,8.3,8.3,0,0,0,1.05-1c1.7-2,.45-4.5-2-4.81a7.56,7.56,0,0,0-3.17.25c.05-.53.08-1.05.09-1.57a1.66,1.66,0,0,0,1.27.15c8.19-2.21,6.29-17.1,4.08-22.86,0-.06-.12-.1-.16,0-1.47,3.33-1.78,6.79-2.52,10.31-.52,2.5-2.16,4.92-3,7.39a41.08,41.08,0,0,0-5.11-13,.62.62,0,0,0-1.15.31c-.25,7.08-.08,14-2.28,20.79a2.34,2.34,0,0,0-.09.33c-1.32-.74-2.59-1.6-3.44-2.08-2.27-1.27-4.56-2.54-6.76-3.93-3.31-2.08-6.78-5.68-10.78-6.05a.12.12,0,0,0-.13.13c.29,5.17,6.71,10,10.34,13,3.89,3.24,9.93,8.17,15.41,7.24,4.94,2.54,12.06,1.54,17,.17,7.53-2.1,12.53-6.46,17.14-12.46C457,371.68,456.27,371,455.78,371.32Zm-22.23-36.55a2.24,2.24,0,0,0-3.26-1.32c-1,.62-1.42,1.52-2.31,2a5.38,5.38,0,0,1-2.29.25,1.26,1.26,0,0,0-1.2,1.58c.46,2.3,3.07,3.18,5.13,2.87C432.06,339.78,434.41,337.35,433.55,334.77Zm38.13-22.38a1.68,1.68,0,0,0-2,.25c-2.1,1.68-1.43,5.83-1.59,8.24-.12,1.86.11,1.37-1.58,1.6a4.72,4.72,0,0,0-3,1.19,1.08,1.08,0,0,0-.17,1.28c1,1.44,3.05,2,4.74,2.28a4.19,4.19,0,0,0,4.72-2.6c.82-1.86.8-4.26.85-6.25C473.7,316.23,473.66,313.63,471.68,312.39ZM489.29,314c-.05-2.1.11-6-1.54-7.61a2.49,2.49,0,0,0-3.63,0c-1.72,1.76-.67,5.49-.6,7.61a43.94,43.94,0,0,1-.1,5.26c-.24,2.91-1.81,2.41-3.65,3.72-.42.3-1.58,1-1.2,1.73,1.94,3.77,8.47,1.6,9.81-1.64C489.47,320.48,489.35,316.83,489.29,314Zm14.4-4.61c0-4,.69-8.45-1.3-12.05a1.82,1.82,0,0,0-3.12,0C497,301.62,498,307.5,498,312.22c0,2.29.81,6.32.06,8.35s-2.9,1.86-4.11,3.35a.62.62,0,0,0,0,.87c3.52,3.55,8.72,2,9.62-2.84C504.32,318,503.73,313.47,503.69,309.43ZM445.91,250a1.21,1.21,0,0,0-1.9,1.46,51,51,0,0,1,4.54,12.48c-1.9.38-3.83,1.21-5.65,1.68-3.12.79-7.65,1.51-9.77,4.12a.32.32,0,0,0,.14.52c3,1,6.93-.37,10-.89,1.82-.32,4-.27,6-.57,0,.47.07.94.08,1.41-1,7.36-5,14.45-11,18.57-5.44,3.73-12.59,3.42-18.86,2.29a48.24,48.24,0,0,1-11.83-3.88,47.53,47.53,0,0,1-9.4-11.28c-.3-.56-.6-1.11-.86-1.66a.92.92,0,0,0-.47-.44l-.33-.53c-.07-.12-.29-.05-.24.1s.07.2.1.31a1.13,1.13,0,0,0-1.27,1.16,20.4,20.4,0,0,0,1,4.5,18.44,18.44,0,0,0-4.58-.18c-6.38.39-12.69.63-19.09.46-6.12-.17-12.23-.61-18.35-.73a58.36,58.36,0,0,0-9.53.15,12.13,12.13,0,0,0-2.91-.29,18.29,18.29,0,0,0-3.55,0,23.42,23.42,0,0,0-3.08-4.84c-1.36-1.6-3.88.12-3.39,2,.28,1.05.59,2.1.9,3.15a2.28,2.28,0,0,0,0,1.24c2.93,10.44,4.95,21.2,7.35,31.78-3.06.26-6.13.39-9.19.67-5.24.47-11.91.72-16.5,3.49a.49.49,0,0,0,0,.83c5.09,2.33,11.93,1.82,17.41,1.66,3.31-.09,6.62-.28,9.93-.34,2.89-.06,5.27.18,7.67-1.53a3.2,3.2,0,0,0,1.27-2.13,3,3,0,0,0,.34-2.59c-2.47-7.09-5.47-14-8.08-21-.42-1.14-.83-2.34-1.24-3.54H342a36.69,36.69,0,0,0,21.54.05,1.74,1.74,0,0,0,.45-.24c2.83.14,5.67.27,8.5.36a165.53,165.53,0,0,0,17.4-.24,14.91,14.91,0,0,1,7.71,1.08,8.25,8.25,0,0,0,4.87.91,39.43,39.43,0,0,0,7.75,6.39,27,27,0,0,0,10.09,3.46,32.93,32.93,0,0,0,7.74.61,26,26,0,0,0,6.54-.66c1.2-.19,2.35-.41,3.44-.67,7.55-1.81,12.33-9,14.38-16.24a49.39,49.39,0,0,0,3-10.82C456.87,262.28,452.39,256,445.91,250Zm49.93-64.63c-.86-.88-2,.23-1.59,1.23,3.94,8.94,1.13,18.82-7.53,23.85a17.29,17.29,0,0,1-13,1.9c-3.73-1-6.71-3.89-10.41-4.76a.6.6,0,0,0-.71.4c-2,5.52,4.6,10.32,9.1,11.67a23.92,23.92,0,0,0,19.44-3.05C501.41,209.88,505,194.68,495.84,185.32Zm-6.54,7.5c-2.43.27-2.1,3.46-2.63,5.15-1.2,3.84-4.13,5.47-8,5.9a9.1,9.1,0,0,1-5.74-1.19c-.17-.08-.79-.66-1.07-.49-1.62,1-.93,3,0,4.25,1.81,2.4,5.31,3.32,8.19,3.35,6.28.07,12.46-5.17,12.56-11.59C492.7,196.31,492,192.53,489.3,192.82Zm-7.67,3.32a4.21,4.21,0,0,0-2.7,1.14c-.26.25-.47.33-.79.64s-.38.49-.65.76a.89.89,0,0,0,.17,1.38,3.8,3.8,0,0,0,3,.48,3.19,3.19,0,0,0,2.46-2.86A1.59,1.59,0,0,0,481.63,196.14Zm7.95-38.57a3.62,3.62,0,0,1-3.6,1.07,1.74,1.74,0,0,0-2.12,2.11,4.93,4.93,0,0,0,5,3.54,5.69,5.69,0,0,0,3.42-1.44,4.52,4.52,0,0,0,1.58-3.5C494,157,491.12,156.31,489.58,157.57ZM343.43,245.22c-.32-4.86-.1-10-1.56-14.72a1,1,0,0,0-1.95,0,40.58,40.58,0,0,0-.77,9.91,37.66,37.66,0,0,0,0,5.62,2,2,0,0,0,.54,1.81c-1.12.1-2.24.18-3.36.25-3.9.25-7.88.45-11.76.95-2.13.27-3.87.21-5.12,2a.07.07,0,0,0,0,.09c1.71,2.77,6.46,2.27,9.32,2.39,3.61.15,9.58.88,12.91-.88C344.51,251.12,343.61,247.85,343.43,245.22Zm92.17-6.83a68.31,68.31,0,0,0-1.89-6.61,6,6,0,0,0-1-2c0-5.66.69-11.33.72-17a230.74,230.74,0,0,0-1.68-25.06c-.86-8.23-1.77-16.47-2.34-24.71-.39-5.78-.53-14.14-5.19-18.31a6.9,6.9,0,0,0-1.42-1.44c-3.19-2.42-7.9-2.64-11.75-3a36.88,36.88,0,0,0-14.29,1.4.09.09,0,0,0,0,.17c4.89.58,9.81.95,14.63,2,2.14.47,4.93.91,6.83,2,2.67,1.6,2.48,3.73,2.79,6.3l.18,1.71c-6-1-12.43.42-18.44.84-7.5.52-15,.77-22.51.88-12.62.19-26.1-.64-38.7,1.34-3.72.1-7.43.22-11,.22q-17.34,0-34.67.14-16.87.17-33.73.5-8.9.18-17.8.42c-5.36.14-11,0-16.13,1.69a.8.8,0,0,0,0,1.53c4.94,1.32,10.12.87,15.19.76,5.62-.13,11.24-.32,16.87-.45q17.33-.42,34.66-.64,16.86-.21,33.73-.25,8.43,0,16.87,0c5.84,0,12,.61,17.8-.15a1.8,1.8,0,0,0,1.36-1.1c4.59.12,9.18.19,13.77.13,7.21-.11,14.42-.33,21.62-.79,6.81-.44,14.88-2.58,21.59-.94.68,6.57,1.18,13.17,1.63,19.76a92.34,92.34,0,0,0-13.36-.39,159.72,159.72,0,0,0-18.55,1.19c-.09,0-.13.15,0,.17,5.57.9,11.1,1.55,16.72,2.15,4.89.53,10.41,1.46,15.51,1.32q1.45,22.06,2,44.17a39.7,39.7,0,0,0,.14,6.73c0,1.36.07,2.72.09,4.07a2.1,2.1,0,0,0,2.42,2.07,4.09,4.09,0,0,0,2,.43.94.94,0,0,0,.1.1,8,8,0,0,0,2.54,1.26C434.52,241.71,436,239.89,435.6,238.39Zm-175.49-37a22.65,22.65,0,0,0-2.65.94,10.31,10.31,0,0,0-2.54.81,1.31,1.31,0,0,0-.26,2,5,5,0,0,0,3.88,1.46,4.58,4.58,0,0,0,3.89-2.23A2.08,2.08,0,0,0,260.11,201.38Zm46.72,18.74,0-.06Zm4.75.76a5.31,5.31,0,0,1-3.75,4.91c-2,.52-5.19-1.16-3.82-3.5a2,2,0,0,1,1.65-.89,1,1,0,0,1,.29.06l.15-.07.21-.15.18-.31c.05-.12.38-.82.38-.87a9,9,0,0,1,.68-.85,2.37,2.37,0,0,1,4,1.67Zm47.28,20.53h0S358.87,241.41,358.86,241.41Zm-.05,0q-.15.23,0,.06l.08-.1h0C358.91,241.27,358.89,241.29,358.81,241.45Zm5.47-.85a2.83,2.83,0,0,0-3.17-1.3,3.63,3.63,0,0,0-2.12,1.83c-.16.39-.2.48-.13.29l-.49.63c.17-.22,0,0-.07.09l-.24.16a4,4,0,0,1-1.16.43,1.72,1.72,0,0,0-.74,2.84,4.78,4.78,0,0,0,5.2,1C363.65,245.76,365.72,243,364.28,240.6ZM254.76,133c-.44-2.85-.37-5.87-1.57-8.52a.6.6,0,0,0-1-.1c-.14-2.06-.29-4.12-.51-6.16-.08-.78-.18-9.54-1.86-9.69-5.46-.48-4,7.67-3.74,10.58.41,4.16,1,8.32,1.56,12.48a62.53,62.53,0,0,0,.84,6.63,6.42,6.42,0,0,0-.4.83,4.74,4.74,0,0,0-.55,2.28,4.4,4.4,0,0,0,4.64.21c0,.07.09.16.14.24a1.66,1.66,0,0,0,3-.39C256.21,138.7,255.19,135.7,254.76,133Zm-30.12,27.43c1.75-1.86,2.67-5.3,2.74-7.57a1.64,1.64,0,0,0-3-.82,35.23,35.23,0,0,0-1.59,3.27c-.34.67-.77,2.09-1.42,2.5s-2.67.45-3.52.66a28.22,28.22,0,0,0-4,1.27,10.15,10.15,0,0,0-3,.62c-.73.28-1.3,1.37-.52,2,2.29,1.8,5.44,2.4,8.26,3,2.55.54,6.25,1.91,8.14-.52a2.14,2.14,0,0,0,.31-2.4A3.62,3.62,0,0,0,224.64,160.41Zm-50.52-27.8c-.39-3.35,0-7.9-2.8-10.18a2.38,2.38,0,0,0-3.66.48c-1.4,2.07-.92,3.72-.68,6.14.19,1.92,1.19,6.06.34,7.85-.92,1.95-4.58,1.54-6.42,1.73a29.43,29.43,0,0,0-7.48,1.33,1.78,1.78,0,0,0,0,3.4c3.41,1.23,7.4,1.19,11,1.45,3.16.23,6.58.15,8.82-2.45C175.59,139.6,174.49,135.86,174.12,132.61ZM425.43,86.33a2.22,2.22,0,0,0-3.25,1.32,1.7,1.7,0,0,1,0,.22,2.83,2.83,0,0,0,0,1c.18,1.16-1.25,4.35-1.64,5.51-.62,1.79-1,3.49-3,4.2a13.33,13.33,0,0,1-3.52.24c-5.21.28-10.41.69-15.62.88-4.91.17-9.83.25-14.73.46-2.95.13-6.16,1-8.9-.16-1.49-.64-1.87-1.38-3-2.27a.13.13,0,0,0-.18,0c-7.23,12.28,29.07,8.72,33.27,8.42,5.55-.4,15.61.32,19.13-5,1.83-2.76,1.93-6.88,2.47-10.07C426.81,89.08,427.24,87.69,425.43,86.33Zm-280,275a107.49,107.49,0,0,0-2.22-17.14c-.8-3.53-5.74-2.46-6,.81-.61,7.93-1.56,16.09-.92,24.06-2.76.36-7.34.55-8.66.71-2.91.36-5.88.29-8,2.5a1.17,1.17,0,0,0,0,1.62c2.92,3,8.62,2.38,12.5,2.3,3.68-.07,9.52.51,12.18-2.73S145.66,365,145.42,361.35Zm-49.5-36.64A3.79,3.79,0,0,0,91.69,323a5.78,5.78,0,0,0-3.42,2.69c-.43.73-.53,1.39-1,2.07a2,2,0,0,1-1.53,1c-.54.14-1.08.33-1.26.92-.91,3,3.66,4.54,5.83,4.22C94.47,333.25,98.14,328.85,95.92,324.71Zm75.65-142a6,6,0,0,0-3.81,2.59c-.39.55-1.17,3.47-1.65,3.67.27-.11-1-.41-1.14-.46a9.42,9.42,0,0,1-1.93-.68c-.93-.45-1.62-1.26-2.69-1.22a.34.34,0,0,0-.27.16c-1.25,2.86,3.66,6.57,5.91,7.4a5.61,5.61,0,0,0,6-1.07,17.94,17.94,0,0,0,3.79-6.19C176.64,184.2,174,182.2,171.57,182.66ZM305.24,96.57a3,3,0,0,0-4.05-1.06,5.42,5.42,0,0,0-1.82,1.74c.07-.09-.08,0-.23.2s-.83.73-1,.87a1.75,1.75,0,0,1-.24.23l0,0c-.24.15-.5.26-.75.4-.51.28-.78.35-1.33.65a1.57,1.57,0,0,0-.72,1.75c.79,2.56,3.91,3,6.18,2.58C304.34,103.34,306.92,99.48,305.24,96.57ZM91.82,298.87c-1-1.55-2.77-3.38-4.81-2.18s-1.15,3.62-.17,5.09c.55.82,1.91,1.93,2.12,2.91s-1,1.17-2,1.4c-2.48.58-5,.58-7.49,1.14a1.16,1.16,0,0,0-.27,2.09,14,14,0,0,0,12.25.42C96.29,307.26,94.15,302.35,91.82,298.87Zm26.46,51.66a3.36,3.36,0,0,0-3.19-2.43,3,3,0,0,0-.6,0,.8.8,0,0,1-.13-.13,11.06,11.06,0,0,0-2.6-2c-.69-.41-1.44-.76-2.16-1.1a12.2,12.2,0,0,1-1.53-1,1.14,1.14,0,0,0-1.34.17c-2.1,1.76.2,5.41,1.44,6.92,1.86,2.27,5.53,5.59,8.59,3.27A3.48,3.48,0,0,0,118.28,350.53Zm11.78-10.19a2.63,2.63,0,0,0,.06-1.22,6.39,6.39,0,0,0-2.59-3.39,6.75,6.75,0,0,0-1.49-.87c-.16-.32-.33-.63-.49-.93-1.3-2.43-5.42-.78-4.51,1.9.34,1,1,1.84,1.24,2.85,0,.08.07.61.11,1-.16.11-.32.22-.47.34-.4.34-3,2.32-2.15,3.11s2,.47,3,.4a4.64,4.64,0,0,0,3.68-1.63,3.54,3.54,0,0,0,.26-.41,1.56,1.56,0,0,0,.41.2,1.81,1.81,0,0,0,.31.72,1.66,1.66,0,0,0,1.76.6,1.72,1.72,0,0,0,1.16-1.17A1.61,1.61,0,0,0,130.06,340.34Zm83.29,64.34c-.77-.27-1.21.64-.95,1.24a13.28,13.28,0,0,1,.81,5.06q-15.78,1.22-31.62,1.68c-7.46.21-15,.3-22.37,1.09a1,1,0,0,0-.22-.35c-1.1-1.15-2.6-.74-4-.59a26.34,26.34,0,0,0-4.67.79.53.53,0,0,0,0,1c.41.12.82.22,1.22.31a.08.08,0,0,0,.05.1c9.8,2.43,20,2.64,30,2.57q15.69-.09,31.36-1a23.08,23.08,0,0,0,.55,7.86,2.58,2.58,0,0,0,5-.68C218.65,418.32,220.07,407.07,213.35,404.68ZM162.06,242.83a2.86,2.86,0,0,0-4.14-1.69,5.36,5.36,0,0,0-2.26,2.62c-.26.63-.42,1.23-1.08,1.58-1.16.63-2.69-.17-3.82-.57a1.22,1.22,0,0,0-1.48.85c-.8,3.55,2.91,5.95,6.1,5.75C159.21,251.13,163.62,246.9,162.06,242.83Zm21.28-46.48c-6.43.4-12.87.46-19.32.84-2.83.17-6.28.79-8.87-.74-2.41-1.44-3.12-4.45-5-6.42a.45.45,0,0,0-.69.09c-3.05,5.52,1.17,11.07,6.53,12.79,8.44,2.7,18.8-.27,27.31-1.37C186.55,201.13,186.75,196.14,183.34,196.35Zm21.17-22.08c-3.25-3.43-8.74-2.57-12.77-1.2a.09.09,0,0,0,0,.17c1.65.57,3.23,1.29,4.88,1.87s3.22,1.06,4.28,2.39c2,2.56,1.13,5.82,2.34,8.55a2.12,2.12,0,0,0,3.32.43C209.52,183.08,207.26,177.18,204.51,174.27ZM192.38,137a2.14,2.14,0,0,0-2.68,2c-.09,1.61.73,2.53,1.31,4s.36,2.38-1.33,2.54c-3.19.32-5.65.47-8.63,1.82a.75.75,0,0,0,0,1.29c3.84,1.85,10.76,3.83,14.1.07C198.12,145.39,196.73,138.47,192.38,137Zm-55.54-9.25a7.55,7.55,0,0,0-3.24-2c.43-4.15-.8-8.67-4.56-10.81a7.52,7.52,0,0,0-7-.28,7.11,7.11,0,0,0-7.55-4.94c-4.72.25-9.06,4.47-8.74,9.28a.48.48,0,0,0,.72.42c1.64-1.13,2.92-2.91,4.67-3.85,4.19-2.23,5.39,1.75,5.2,5.2s4.38,4.1,6.08,1.64c1-1.51,2.19-2.41,3.61-1s.86,4,0,5.67a3.62,3.62,0,0,0,3.09,5.38c2.25,0,4.3.32,6.49-.24A2.71,2.71,0,0,0,136.84,127.77Zm130.41-21.89c-.31-4-.14-9.39-3.05-12.4a.3.3,0,0,0-.43,0c-2.6,3.24-2,8.45-2.07,12.4,0,5-.08,9.9,0,14.85a66.31,66.31,0,0,1-8.22,0c-4.09-.25-3.92,5.81,0,6.26a51.6,51.6,0,0,0,11.52,0,3.31,3.31,0,0,0,3.24-3.24C268.12,117.74,267.72,111.81,267.25,105.88Zm204.69,33.77c-2.27-1.31-2.49-1.61-2.72-4.54-.21-2.64.52-4.86-1.13-7.13a2.74,2.74,0,0,0-4.22-.54c-4.07,3.19-2.59,13.83,1.72,16.57.93.6,2.74.65,3.34,1.48,1.48,2-1.66,1.39-2.93,1.44-3.81.13-8.15-.39-11.79.8a1.34,1.34,0,0,0-.31,2.41c3.83,2.68,9.88,2.72,14.39,2.49,3.28-.16,5.88-.83,6.65-4.39C475.64,145.05,474.94,141.38,471.94,139.65ZM473,236.78a3.26,3.26,0,0,0-3.95-2.24,6.17,6.17,0,0,0-2.79,1.92,7.46,7.46,0,0,1-1.44,1.51c-1,.6-3,.33-3.61,1.39a.59.59,0,0,0,0,.08,1.53,1.53,0,0,0,0,1.56C464.34,245.68,474.82,243.15,473,236.78ZM507.76,368.7c-.39-5.25-1.06-10.45-2-15.64-.83-4.84-8.25-2.8-7.38,2,1,5.76,2.66,12.59,1.87,18.46-.51,3.81-3.56,3.18-6.64,3.39a44.38,44.38,0,0,0-8.11,1.14,2,2,0,0,0-1.4,1.41c0,.16-.05.33-.08.5v0a2.06,2.06,0,0,0,1.48,1.94c6,1.81,16.95,4.53,20.88-2.14C508.38,376.5,508,372.37,507.76,368.7Zm-102.1,27.63c-1.29-3-5.83-1.87-6.61.86-.66,2.3.09,4.36,1.25,6.37.13.22.39.7.64,1.06l-1.09.24c-1.24.27-10.59,1.65-8.61,4.52,1.38,2,4.45,1.5,6.62,1.52,2.48,0,5.84.43,8-.95C411.17,406.65,407.42,400.41,405.66,396.33ZM393.5,266.6c-14.81,1-29.7,1.28-44.54,1.72-7.4.21-14.79.38-22.19.44-6.58.05-14.16-.7-20.46,1.44a.49.49,0,0,0,0,.93c6.18,2.48,13.91,1.91,20.46,1.88,7.4,0,14.79-.17,22.19-.35,14.84-.38,29.69-1.18,44.54-1.13C396.7,271.54,396.65,266.38,393.5,266.6Zm-107,5.76c-4-1.24-8.7-.15-12.9-.24-3.47-.07-7.94-1.14-10.92.94a.45.45,0,0,0-.09.69c2.32,3,7.48,2.93,11,3,4.26.11,9.51.51,13.25-1.75A1.47,1.47,0,0,0,286.54,272.36Zm133.4-34.17a2.27,2.27,0,0,1-2.24,2.24l-1.61.1c-1.43.08-1.89-1.7-1.09-2.63,1.11-1.29.09-5.41,0-7-.16-2.11-.36-4.21-.59-6.32q-.69-6.33-1.52-12.64c-.06-.44-.1-.89-.16-1.34a2,2,0,0,1-2.27.86c-5-1.3-10.7-.75-16.21,0,1.4,13.65,4.44,28.14,2.72,41.85-.24,1.9-3.15,2.71-3.64.49-1.51-6.94-1.54-14.31-1.52-21.4a150.49,150.49,0,0,1,1.34-20.79c-2.43.32-4.81.66-7.06.86q-5.6.5-11.19.94c.18,2.65.08,5.34.11,7.93q.06,6.39.17,12.78c0,1.83.05,3.66.07,5.49.43,7.29.76,14.63.71,21.91.23,2.81-4.15,2.78-4.37,0-.68-8.51-.87-17.14-.93-25.68,0-.74,0-1.49-.05-2.26,0-.55,0-1.1-.05-1.65-.09-2.24-.2-4.56-.24-6.87,0-1.24-.09-2.48-.13-3.72-.08-2.47-.26-5-.2-7.55-2.71.19-5.41.38-8.12.55-5.14.31-10.27.74-15.41,1,.58,2.44.84,5,1.22,7.4.67,4.34,1.26,8.69,1.72,13.06a108.74,108.74,0,0,1-.35,26.92v0c0,.2,0,.39-.08.59-.38,2.56-4.4,1.84-4.39-.59.05-13.6-2.21-27.5-.53-41-.2-2-.45-4.15-.47-6.22-2,.08-4,.13-6,.13-3.72,0-7.47,0-11.19-.25-1.84-.14-3.62-.79-4.9.14.51,4.55,1.05,9.64-1,13.22a1,1,0,0,1-1.67,0c-2-3.2-1.93-7.78-1.78-12a7.43,7.43,0,0,1,.07-3.12c0-.44,0-.88,0-1.3-.19-5.49-1.05-11.57.32-17q-6.12,0-12.23.06c-10.75,0-22.67,1.29-33.23-1.17.78,5.11.71,10.33,1,15.48a2,2,0,0,1-1.17,1.91c0,.14,0,.28,0,.41,3,0,5.91,0,8.86-.06,4.32,0,8.65,0,13,0,.19-.33.57-.24.79,0h4c4.44,0,9.61-.92,13.62,1.26a1.08,1.08,0,0,1,0,1.83c-4.16,2.37-9.91,1.44-14.55,1.49l-2.23,0c.86,4.92,2,9.79,2.59,14.76s.72,10.72-3.15,14.48a.66.66,0,0,1-1.1-.29,35.55,35.55,0,0,1-.81-9.76,2.55,2.55,0,0,1-2.35,1.2c-5.6-.1-11.2-.61-16.8-.9l.15,3.43q.24,6.16.61,12.32a84.86,84.86,0,0,1,15.71.3c2.22.32,2.24,4.2,0,4.5a83.44,83.44,0,0,1-15.33.16,24.75,24.75,0,0,1-.51,9,.89.89,0,0,1-1.61.21c-1.42-2.87-1.74-6.16-2-9.38-5.46-.2-11.21-.13-16.46-1.55a.89.89,0,0,1,0-1.7c5.16-1.34,10.77-1.25,16.12-1.38q-.42-5.76-.76-11.53c-.09-1.52-.15-3-.21-4.54a119.2,119.2,0,0,1-15.81-1.1c-.54-.09-.47-.89,0-1a69.49,69.49,0,0,1,15.68-2.26c-.09-5,0-9.95.37-14.94a138,138,0,0,1-21.78-2,.44.44,0,0,1,0-.85,152.34,152.34,0,0,1,22.19-1.71,1.11,1.11,0,0,0,0-.19,1.81,1.81,0,0,1-1.3-1c-1-2.15-.75-4.33-.79-6.67-.05-2.79-.16-5.59,0-8.38-6.61-.39-13.19-.76-19.8-1.37-.32,0-.45-.55-.08-.6A205.53,205.53,0,0,1,270,192.16a1.9,1.9,0,0,1,1.83,1.39c0,.12,0,.24.05.37,10.55-2.66,22.5-1.58,33.28-1.74,11.27-.17,22.54-.25,33.81-.38l34.74-.38,17.84-.2c.78,0,1.6,0,2.45,0a.74.74,0,0,1,.42-.19c2.68-.23,5.32-.69,8-1,2.34-.25,4.73-1,7-.39a.87.87,0,0,1,.68.8,1.51,1.51,0,0,1,1.3,1.65,4.82,4.82,0,0,1,.94-1.29.65.65,0,0,1,.75-.09c3.07,1.66,2.85,5.7,3.31,8.85.55,3.82,1.1,7.63,1.46,11.47C418.77,220.1,419.3,229.16,419.94,238.19Zm-147.53-21.5c.5,4.89.83,9.76,1.09,14.66a129,129,0,0,1,17,0,2.85,2.85,0,0,1,2.41,1.6c0-1.64.05-3.27-.05-4.86-.23-3.81-.81-7.64-.37-11.37-3.92.05-7.84.09-11.76.08C278,216.74,275.2,216.73,272.41,216.69Zm139.94-9c-.36-3.07-.7-6.15-1-9.23a20.5,20.5,0,0,1-.31-5,1.92,1.92,0,0,1-1,.78c-4.93,1.71-11.43.67-16.61.7l-17.84.1-34.75.2-22,.14c1.84,4.66,1.9,10.11,2.15,15.09a28.06,28.06,0,0,1,3.49-.18c9.93-.27,19.9.19,29.84,0,5.34-.08,10.68-.4,16-.81.09-.47.19-.94.32-1.4a1.69,1.69,0,0,1,3.23,0c.11.36.2.72.29,1.09,3.33-.28,6.65-.58,10-.88,8.73-.76,18.77-3.22,27.37-1A2.17,2.17,0,0,1,412.35,207.72Zm-88.71,49.36c.09-1.8.51-3.5-.85-4.91a1.41,1.41,0,0,0-1.66-.22c-1.53.83-1.81,2.47-1.92,4.08-.86,2.38,0,5.66.36,8s4.32,1.8,4.16-.57A53.63,53.63,0,0,1,323.64,257.08Z"/><path class="cls-6" d="M236.75,407.29a.76.76,0,0,1-.46-.16l-.71-.54a.77.77,0,0,1-.22-.93l0-.08,0-.08c-2-4-3.63-8.22-5.21-12.31C227.28,385.7,224.3,378,219,371.92a69,69,0,0,0-8.85-8l-2.08-1.68-.26-.21,0,.34a180.45,180.45,0,0,0-.45,38.17.74.74,0,0,1-.17.55.78.78,0,0,1-.51.27h0a.75.75,0,0,1-.8-.68,180.75,180.75,0,0,1,.58-39.66l0-.1-.07-.12-.35-.29-.6-.51c-5.81-5.11-9.12-10.11-10.1-15.3a.75.75,0,0,1,.6-.88h.14a.75.75,0,0,1,.74.61c.92,4.84,4.06,9.57,9.61,14.45,1.53,1.34,3.14,2.63,4.69,3.88a70.3,70.3,0,0,1,9,8.16c5.47,6.24,8.49,14.11,11.42,21.72a116.48,116.48,0,0,0,5.85,13.53.76.76,0,0,1-.17.93A.8.8,0,0,1,236.75,407.29Z"/><path class="cls-6" d="M258.29,412.78a.71.71,0,0,1-.5-.19l-3.42-3a.74.74,0,0,1-.25-.52.76.76,0,0,1,.19-.54.75.75,0,0,1,.56-.25.71.71,0,0,1,.5.19l2.72,2.41.12-.19a32.93,32.93,0,0,1,4.44-5.87.73.73,0,0,1,.54-.24.76.76,0,0,1,.52.21.72.72,0,0,1,.23.53.69.69,0,0,1-.2.53,31.78,31.78,0,0,0-4.79,6.57.74.74,0,0,1-.53.38Z"/><path class="cls-6" d="M119.91,374.26a.79.79,0,0,1-.54-.22.77.77,0,0,1-.12-.88l0-.05-1.07-20.4-.2,0a10.62,10.62,0,0,1-1.37.09,11.74,11.74,0,0,1-7.47-2.7,10.56,10.56,0,0,1-3.9-9.09,12.24,12.24,0,0,1,6-9.45,11.63,11.63,0,0,1,6-1.68,10.58,10.58,0,0,1,6,1.81,9.56,9.56,0,0,1,3.55,11.12l-.11.27,13.69-.71.11,0,.12,0a.75.75,0,0,1,.71.73l.93,28.51.05.05a.69.69,0,0,1,.19.44.72.72,0,0,1-.19.54.74.74,0,0,1-.52.25l-21.42,1.14-.05,0A.73.73,0,0,1,119.91,374.26ZM119.32,345l1.43,27.53,20.06-1.07-.89-27.54Zm-2-13.58a10.16,10.16,0,0,0-5.27,1.45,10.73,10.73,0,0,0-5.26,8.28,9.09,9.09,0,0,0,3.36,7.82,10.29,10.29,0,0,0,6.51,2.35,9.87,9.87,0,0,0,1.22-.08h.2l.07-.19-.33-6.28,0,0a.64.64,0,0,1-.15-.39.72.72,0,0,1,.24-.57.77.77,0,0,1,.62-.41h0a.69.69,0,0,1,.43.13l.06,0,6.41-.33,0-.22a.71.71,0,0,1,0-.44,8.15,8.15,0,0,0-2.92-9.57A9.15,9.15,0,0,0,117.3,331.42Z"/><path class="cls-6" d="M115,311.6a.76.76,0,0,1-.75-.72l-.73-15.57-6.31.24a.76.76,0,0,1-.78-.72.77.77,0,0,1,.2-.54.75.75,0,0,1,.52-.24l6.3-.24-.41-8.68a.76.76,0,0,1,.71-.79h0a.76.76,0,0,1,.78.72l.41,8.69,6.83-.26-.38-8.77a.75.75,0,0,1,.72-.78h0a.75.75,0,0,1,.78.72l.38,8.77,4.91-.19a.76.76,0,0,1,.58,1.26.77.77,0,0,1-.53.24l-4.9.19.23,5.31,5.17-.12a.76.76,0,0,1,.77.73.78.78,0,0,1-.21.54.8.8,0,0,1-.53.23l-5.13.13.2,4.75a.75.75,0,0,1-.72.78h0a.76.76,0,0,1-.78-.72l-.21-4.78-4.28.11a.76.76,0,0,1-.77-.74.74.74,0,0,1,.21-.53.75.75,0,0,1,.53-.24l4.25-.1-.23-5.29-6.82.26.73,15.56a.75.75,0,0,1-.71.78Z"/><path class="cls-6" d="M85,136.4a.75.75,0,0,1-.06-1.5l7.34-.6,0-.14a10.74,10.74,0,0,1,6.08-8,7.64,7.64,0,0,1,3.18-.75h.32l0-.17c0-.3.07-.59.11-.86a23.47,23.47,0,0,1,4.07-10.09c2.37-3.34,5.43-5.25,8.4-5.25a6.47,6.47,0,0,1,1.08.09c3.09.5,5.77,3.35,6.52,6.91a11.35,11.35,0,0,1,.21,1.44l0,.26.24-.11a5.81,5.81,0,0,1,1.33-.4,6.8,6.8,0,0,1,1-.08,7.76,7.76,0,0,1,6.85,4.66,9.81,9.81,0,0,1-.18,7.71l-.11.26,7.16-.06a.76.76,0,0,1,.76.74.79.79,0,0,1-.22.54.75.75,0,0,1-.53.22l-8.42.08a.76.76,0,0,1-.65-1.15,8.62,8.62,0,0,0,.81-7.74,6.3,6.3,0,0,0-5.49-3.76,3.91,3.91,0,0,0-.76.07,4.32,4.32,0,0,0-1.79.75l-.07,0v.08a11.5,11.5,0,0,1-1.95,5.29.75.75,0,0,1-.62.32h-.12a.76.76,0,0,1-.6-.52,5.57,5.57,0,0,1,.7-4.52,6.66,6.66,0,0,1,1.09-1.34l.06,0v-.08a9.62,9.62,0,0,0-.2-2.34c-.51-2.43-2.39-5.26-5.29-5.74a6.52,6.52,0,0,0-.88-.07c-3.58,0-6.36,3.53-7.13,4.62a22,22,0,0,0-3.82,9.44c0,.31-.08.63-.11,1v.15l.13,0a4.14,4.14,0,0,1,2.73,4.6.7.7,0,0,1-.7.58,3.85,3.85,0,0,1-3.34-2.64,5.68,5.68,0,0,1-.28-1.2l0-.17h-.17a7,7,0,0,0-2.72.61,9.41,9.41,0,0,0-5.3,7.54.75.75,0,0,1-.68.69l-8,.65Zm18.75-8.32a2.7,2.7,0,0,0,.52.73l.3-.22a3,3,0,0,0-.52-.72Z"/><path class="cls-6" d="M182.39,147.41a.75.75,0,0,1-.52-1.29,34.79,34.79,0,0,0,7.44-10.49.75.75,0,0,1,.68-.43.87.87,0,0,1,.32.06.78.78,0,0,1,.4.5,1.78,1.78,0,0,1,.14.27,33.59,33.59,0,0,0,4.26,8.87.82.82,0,0,1,.1.26l0,.1.09,0a.78.78,0,0,1,.44.65.76.76,0,0,1-.19.54.74.74,0,0,1-.52.25Zm7.3-9.2a36.28,36.28,0,0,1-5.1,7.26l-.3.34,9.3-.51-.17-.27a35.66,35.66,0,0,1-3.39-6.8l-.14-.39Z"/><path class="cls-6" d="M153,142.51a.71.71,0,0,1-.51-.21.69.69,0,0,1-.24-.52l-.46-16.9a.75.75,0,0,1,.21-.55l.08-.08,0-.11a.47.47,0,0,1,0-.17.75.75,0,0,1,.71-.79l17.14-.93a.75.75,0,0,1,.78.72l.7,18.06a.82.82,0,0,1-.2.54.77.77,0,0,1-.53.24Zm.28-17.85.45,16.32,16.08-.64-.63-16.54Z"/><path class="cls-6" d="M222.2,124.41a.75.75,0,0,1-.1-1.5A137.93,137.93,0,0,1,240,121.68a.76.76,0,0,1,0,1.51,134.79,134.79,0,0,0-17.75,1.21Z"/><path class="cls-6" d="M222.91,131a.75.75,0,0,1-.74-.64.81.81,0,0,1,.13-.56.77.77,0,0,1,.49-.3l5.79-.92h.13a.73.73,0,0,1,.73.63.74.74,0,0,1-.62.86L223,131Z"/><path class="cls-6" d="M234,130.09a.76.76,0,0,1,0-1.51h5.1a.76.76,0,0,1,0,1.51Z"/><path class="cls-6" d="M222.69,136.93a.75.75,0,0,1-.05-1.5l11.57-.77a.75.75,0,0,1,.1,1.5Z"/><path class="cls-6" d="M223.61,141.43a.75.75,0,1,1,0-1.5h2.31a.75.75,0,1,1,0,1.5Z"/><path class="cls-6" d="M234.26,141a.75.75,0,1,1,0-1.5h3.24a.75.75,0,0,1,0,1.5Z"/><path class="cls-6" d="M299.06,101.91a4.9,4.9,0,0,1-4.51-4.48,5,5,0,0,1,3.9-5l.15,0a.73.73,0,0,1,.67.42l.08.15.15,0a.69.69,0,0,1,.24-.05,4.62,4.62,0,0,1,4.11,4.9,4.7,4.7,0,0,1-4.61,4.17Zm-.22-8.06-.09,0a3.52,3.52,0,0,0-2.7,3.48,3.38,3.38,0,0,0,3.07,3.06h.15a3.23,3.23,0,0,0,3.09-2.8,3,3,0,0,0-.72-2.15,2.88,2.88,0,0,0-2-1.1.77.77,0,0,1-.61-.42l-.07-.15Z"/><path class="cls-6" d="M372.09,104.43c-.42,0-.53-.42-1.28-3.74-.41-1.79-.92-4.12-1.41-6.31l-.06-.31c-.66-3-1.35-6.07-1.45-6.4A.76.76,0,0,1,368,87a.78.78,0,0,1,.59-.32l9.72-.23a.78.78,0,0,1,.69.42l1.62,3.24a4.87,4.87,0,0,0,4.32,2.67h.22l24.74-1.11a4.79,4.79,0,0,0,3.67-2l2.35-3.19a.78.78,0,0,1,.59-.3l8.33-.23a.72.72,0,0,1,.58.25.72.72,0,0,1,.18.61l-2.31,15.28a.76.76,0,0,1-.73.64c-18.5.34-47,1-49.8,1.51a1.09,1.09,0,0,1-.37.13Zm-2.53-16.27.05.23c.24,1,.62,2.78,1.21,5.45l.11.46c.66,3,1.49,6.76,1.87,8.33l0,.17.17,0c2.5-.38,9-.57,24.4-1,9.58-.25,19.36-.44,24.33-.54h.16L424,87.51l-7.07.2-2.13,2.89A6.31,6.31,0,0,1,410,93.16l-24.75,1.11h-.29a6.38,6.38,0,0,1-5.65-3.5L377.87,88Z"/><path class="cls-6" d="M386.2,87.45a.76.76,0,0,1-.75-.74.75.75,0,0,1,.73-.77l21.76-.58a.8.8,0,0,1,.78.74.74.74,0,0,1-.21.53.77.77,0,0,1-.53.24l-21.76.58Z"/><path class="cls-6" d="M385.27,82.16a.75.75,0,0,1,0-1.5L407,80.33a.74.74,0,0,1,.77.74.76.76,0,0,1-.74.76l-21.76.33Z"/><path class="cls-6" d="M384.81,76.36a.75.75,0,0,1,0-1.5l20.13-.59a.75.75,0,1,1,.05,1.5l-20.13.59Z"/><path class="cls-6" d="M361.74,127.64l-.15,0a.74.74,0,0,1-.6-.7l-.52-11.17a.75.75,0,0,1,0-.5.74.74,0,0,1,.68-.57,7.38,7.38,0,0,1,1.92-.65,4,4,0,0,1,.59,0,3,3,0,0,1,2.08.78,3.18,3.18,0,0,1,0,4.18,7.81,7.81,0,0,1-3.17,2.12.45.45,0,0,1-.2,0l-.18,0v.18l.22,4.65,0,0a.75.75,0,0,1,.12.82l-.19.39A.78.78,0,0,1,361.74,127.64Zm1.92-12.15a2,2,0,0,0-.34,0,4.48,4.48,0,0,0-1.22.4l-.12,0,.17,3.65.26-.11A5.77,5.77,0,0,0,364.6,118a1.73,1.73,0,0,0,.11-2.18A1.53,1.53,0,0,0,363.66,115.49Z"/><path class="cls-6" d="M370.61,127.75a.76.76,0,0,1-.75-.65.74.74,0,0,1,.18-.58l0,0-.28-11-.07-.06a.76.76,0,0,1-.3-.54.75.75,0,0,1,.63-.77,1,1,0,0,1,.46-.17.82.82,0,0,1,.31.09l4.22-.22a.77.77,0,0,1,.79.7.79.79,0,0,1-.19.55.76.76,0,0,1-.52.25l-3.82.22.08,3.29.21,0a9.05,9.05,0,0,1,1.45-.12,8.06,8.06,0,0,1,.85,0,.75.75,0,0,1,.51.28.72.72,0,0,1,.16.55.75.75,0,0,1-.74.67c-.32,0-.57,0-.81,0a7.81,7.81,0,0,0-1.44.14l-.15,0,.13,5.28.06.06a.71.71,0,0,1,.16.23l0,.13,4.69-.64h.1a.75.75,0,0,1,.1,1.5l-6,.82Z"/><path class="cls-6" d="M381.33,127.21a.57.57,0,0,1-.22,0,.74.74,0,0,1-.53-.69l-.37-12.3a.75.75,0,0,1,.73-.77.78.78,0,0,1,.64.36l0,0,.06,0a.69.69,0,0,1,.34.28,65.38,65.38,0,0,0,7,9.22l.35.39-.51-9.38a.72.72,0,0,1,.19-.54.74.74,0,0,1,.52-.25h0a.77.77,0,0,1,.79.71l.56,10.36a.73.73,0,0,1-.37.68l-.06,0,0,.08a.7.7,0,0,1-.2.37.72.72,0,0,1-.52.21.76.76,0,0,1-.54-.23,66.2,66.2,0,0,1-7.08-8.74l-.37-.53.27,8.65.09,0a.8.8,0,0,1,.37.53.74.74,0,0,1-.14.56l-.43.6A.77.77,0,0,1,381.33,127.21Z"/><path class="cls-6" d="M397.57,128.22a.74.74,0,0,1-.67-.41,1,1,0,0,1-.08-.29v-.14l-.14,0a.74.74,0,0,1-.57-.69l-.47-11.56-.08,0a.75.75,0,0,1-.34-.55.73.73,0,0,1,.49-.75l0,0,0,0a.74.74,0,0,1,.54-.28h0a.8.8,0,0,1,.48.16l.05.05h.07c.32,0,.64,0,1,0a8.85,8.85,0,0,1,1.78.16,5.18,5.18,0,0,1,3.46,2.14,5.72,5.72,0,0,1,.67,4.1,11.14,11.14,0,0,1-5.9,8.16A.66.66,0,0,1,397.57,128.22Zm.34-13.13h-.76l.4,10.07.06.06a.74.74,0,0,1,.23.79l-.16.5.42-.24a9.67,9.67,0,0,0,4.23-6.53,4.57,4.57,0,0,0-.44-3.06,3.84,3.84,0,0,0-2.5-1.49A8.05,8.05,0,0,0,397.91,115.09Z"/><path class="cls-6" d="M409.91,126.54a.76.76,0,0,1-.75-.7l-.73-10.65a.74.74,0,0,1,.7-.8h0a.75.75,0,0,1,.8.69l.66,9.6,0,0a.66.66,0,0,1,.12.17,1.08,1.08,0,0,1,.07.91,1.1,1.1,0,0,1-.62.68A.72.72,0,0,1,409.91,126.54Z"/><path class="cls-6" d="M415.19,127a.74.74,0,0,1-.75-.72L414,115.6l0,0a.72.72,0,0,1,0-.93l0-.05v0a.73.73,0,0,1,.7-.68h0a.74.74,0,0,1,.77.72l0,.45.05,0c2.34,2.6,4.66,5.31,6.87,8.06l.36.43,0-.56c-.11-3.4-.25-6.36-.44-9a.74.74,0,0,1,.18-.55.77.77,0,0,1,.51-.26h0a.77.77,0,0,1,.8.7c.29,4.11.47,8.27.54,12.37a.75.75,0,1,1-1.5,0v-.07l-.06-.19c-2.19-2.77-4.48-5.52-6.85-8.21l-.35-.4.35,8.83a.73.73,0,0,1-.2.54.75.75,0,0,1-.52.24Z"/><path class="cls-6" d="M438.51,128.8a.75.75,0,0,1-.75-.69l-.17-2.12-.24.11a6.76,6.76,0,0,1-7.51-1.39,6.59,6.59,0,0,1,4.85-11.18,6.35,6.35,0,0,1,2,.32.75.75,0,0,1-.23,1.46.69.69,0,0,1-.25,0,4.75,4.75,0,0,0-1.52-.24,5.09,5.09,0,0,0-3.77,8.63,5.19,5.19,0,0,0,3.73,1.51,5,5,0,0,0,2.52-.65l.29-.1v-.15a2.38,2.38,0,0,0-.25-1.1,1.31,1.31,0,0,0-1.08-.36l-.43,0-.46.06a8.92,8.92,0,0,1-1.17.11,3.25,3.25,0,0,1-1.07-.17.72.72,0,0,1-.43-.37.78.78,0,0,1,0-.58.75.75,0,0,1,.71-.51.67.67,0,0,1,.24,0,1.76,1.76,0,0,0,.59.08,6.73,6.73,0,0,0,1-.09l.5-.07.59,0a2.72,2.72,0,0,1,2.29,1,3.39,3.39,0,0,1,.54,1.83l.32,3.89a.76.76,0,0,1-.69.81Z"/><path class="cls-6" d="M488.93,161.67a3.71,3.71,0,0,1-.74-.07,3.83,3.83,0,0,1-3.13-2.56,5.27,5.27,0,0,1,.95-5,3.61,3.61,0,0,1,2.74-1.27,4,4,0,0,1,.84.09,4.49,4.49,0,0,1,3.26,5.43A4,4,0,0,1,488.93,161.67Zm-.19-7.44a2.08,2.08,0,0,0-1.6.76,3.76,3.76,0,0,0-.66,3.54,2.32,2.32,0,0,0,1.95,1.59,3.08,3.08,0,0,0,.51,0,2.47,2.47,0,0,0,2.43-2.19,3,3,0,0,0-2.1-3.68A2.46,2.46,0,0,0,488.74,154.23Z"/><path class="cls-6" d="M238.26,153.11a1.83,1.83,0,0,1-.84-3.43.74.74,0,0,1,.36-.09.79.79,0,0,1,.37.1l.06,0h.2a1.75,1.75,0,0,1,1.28,2.79,1.82,1.82,0,0,1-1.39.61Zm-.2-1.57a.35.35,0,0,0,.23.07l.35-.05-.22-.35h-.21l-.64-.1Z"/><path class="cls-6" d="M247,152.74a2.32,2.32,0,0,1-1.05-.25,2.23,2.23,0,0,1-1.28-1.68.75.75,0,0,1,.65-.84h.1a.81.81,0,0,1,.34.08l.13.07.09-.11a.67.67,0,0,1,.25-.19,1.44,1.44,0,0,1,.62-.14,1.69,1.69,0,0,1,1.27.63,1.58,1.58,0,0,1,.17,1.94.69.69,0,0,1-.23.22A2.05,2.05,0,0,1,247,152.74Z"/><path class="cls-6" d="M254.86,152.57h-.19a1.64,1.64,0,0,1-1.27-1,1.66,1.66,0,0,1,.09-1.59.52.52,0,0,1,.1-.11.51.51,0,0,1,.12-.15,1.57,1.57,0,0,1,1.12-.45,2,2,0,0,1,.42.05,1.57,1.57,0,0,1,.88,2.6A1.66,1.66,0,0,1,254.86,152.57Z"/><path class="cls-6" d="M288.08,174l-.19,0a18,18,0,0,1-6.14-2.89.76.76,0,0,1-.08-1.14l5.72-5.56a.75.75,0,0,1,.53-.22.75.75,0,0,1,.52,1.29l-5.06,4.93.2.12a16.16,16.16,0,0,0,4.68,2,.75.75,0,0,1-.18,1.48Z"/><path class="cls-6" d="M353.64,172a.76.76,0,0,1-.46-1.35l4.51-3.51L351.48,163a.77.77,0,0,1-.32-.47.76.76,0,0,1,.74-.91.74.74,0,0,1,.41.13l7.08,4.66a.75.75,0,0,1,.05,1.22l-5.34,4.16A.76.76,0,0,1,353.64,172Z"/><path class="cls-6" d="M295.46,173.94a.75.75,0,0,1-.62-1.18l3.75-5.38a2.34,2.34,0,0,0,.49-.95.75.75,0,0,0-.44-.75.64.64,0,0,0-.24,0,.72.72,0,0,0-.59.27.77.77,0,0,1-.6.3.77.77,0,0,1-.75-.66.77.77,0,0,1,.15-.55,2.27,2.27,0,0,1,1.78-.87,2,2,0,0,1,.81.16,2.25,2.25,0,0,1,1.38,2.31,3.67,3.67,0,0,1-.75,1.64l-2.91,4.16,3.52-.08a.79.79,0,0,1,.77.74.74.74,0,0,1-.74.76l-5,.12Z"/><path class="cls-6" d="M307.14,173.9a4.16,4.16,0,0,1-4-3.48,4.14,4.14,0,0,1,3.43-4.52,2.89,2.89,0,0,1,.5,0,4.17,4.17,0,0,1,4,3.47,4.12,4.12,0,0,1-3.44,4.53A2.74,2.74,0,0,1,307.14,173.9Zm-.09-6.53a1.51,1.51,0,0,0-.3,0,2.65,2.65,0,0,0-2.15,2.83,2.66,2.66,0,0,0,2.54,2.17,1.51,1.51,0,0,0,.3,0,2.65,2.65,0,0,0,2.15-2.83A2.65,2.65,0,0,0,307.05,167.37Z"/><path class="cls-6" d="M322.22,171.94a2.09,2.09,0,0,1-1.33-.46,3.16,3.16,0,0,1-.94-2.22,2.81,2.81,0,0,0-.31-1.2,1,1,0,0,0-.85-.36,1.84,1.84,0,0,0-1,.28,5.73,5.73,0,0,0-1.61,2.21.77.77,0,0,1-.68.42.81.81,0,0,1-.34-.08.76.76,0,0,1-.33-1,7,7,0,0,1,2.13-2.79,3.33,3.33,0,0,1,1.8-.53,2.48,2.48,0,0,1,2.08,1,3.92,3.92,0,0,1,.58,1.9,2,2,0,0,0,.4,1.23.59.59,0,0,0,.39.12,1.71,1.71,0,0,0,1-.42,6.82,6.82,0,0,0,.82-.94,9.74,9.74,0,0,1,.86-1,3.23,3.23,0,0,1,2.16-.95,2.07,2.07,0,0,1,1.11.31,3.28,3.28,0,0,1,1,1.12c.21.33.39.6.6.68H330c.29,0,.63-.31,1.16-.82a3.7,3.7,0,0,1,2.42-1.34,3.33,3.33,0,0,1,2.07,1,2.24,2.24,0,0,0,1.09.66h0l.21-.09,0-.14a.75.75,0,0,1,.47-.81.65.65,0,0,1,.27,0,.77.77,0,0,1,.71.48,1.43,1.43,0,0,1-.22,1.37,1.88,1.88,0,0,1-1.47.74h-.1a3.44,3.44,0,0,1-2-1,2,2,0,0,0-1.06-.63c-.44,0-.9.44-1.39.91a3.43,3.43,0,0,1-2.2,1.25,2,2,0,0,1-.67-.12,2.92,2.92,0,0,1-1.33-1.26,2.29,2.29,0,0,0-.55-.67.71.71,0,0,0-.34-.08,1.75,1.75,0,0,0-1.11.52,8.49,8.49,0,0,0-.71.84,7.85,7.85,0,0,1-1,1.15A3.16,3.16,0,0,1,322.22,171.94Z"/><path class="cls-6" d="M147.61,426.56a.76.76,0,0,1-.76-.74l-.32-17.57a5.34,5.34,0,0,1,5.29-5.43l26.63-.31,0-.22,0-.1L177,375.91c-.25-4.71-1.73-8.9-3.3-13.33a76.5,76.5,0,0,1-2.78-9.14,86.29,86.29,0,0,1-1.63-12.51v-.17h-.18a.77.77,0,0,1-.42-.13,44.12,44.12,0,0,1-18.3-37.95c.57-9.46,4.22-18.42,7.75-27.08.43-1.06.87-2.13,1.29-3.19l.64-1.58c2.83-7.1,5.76-14.44,11.18-20,5.22-5.32,12.59-8.82,21.92-10.38l.32-.06-.21-.25a.74.74,0,0,1-.15-.68,40.39,40.39,0,0,0,1.46-14.69v-.1l-.09,0c-8-4.33-12.37-14.5-10.05-23.14a17.36,17.36,0,0,1,.56-1.73l.1-.26-29.27.31a7.87,7.87,0,0,1-8-7.94l.08-9.65a7.86,7.86,0,0,1,7.53-7.8l38.4-1.69h.34A7.86,7.86,0,0,1,202,180.3l.25,6.3.2,0c.59-.05,1.18-.08,1.75-.08s1.08,0,1.61.07c1.38.13,2.78.4,4.14.66a28.82,28.82,0,0,0,5.42.71,9.39,9.39,0,0,0,3.45-.59.86.86,0,0,1,.27,0,.74.74,0,0,1,.75.83,30.44,30.44,0,0,1-3.82,11.81l0,.07v.07c-.26,3.06.89,6.06,2.1,9.24,1.38,3.63,2.8,7.37,1.91,11.23a10.19,10.19,0,0,1-13,7.42l-.32-.1,2.9,11.16,0,.15.15.06a57.9,57.9,0,0,1,17.79,2.58l.26.08-2.2-79.66h-.2l-15.56,0a.75.75,0,0,1-.75-.78,460.82,460.82,0,0,0-.93-51.31.78.78,0,0,1,.19-.56.76.76,0,0,1,.53-.25l30.3-1.35-.46-14.08a.76.76,0,0,1,.21-.55.78.78,0,0,1,.54-.23h23.61a.76.76,0,0,1,.76.76v30.55a.77.77,0,0,1-.24.55.76.76,0,0,1-.52.21l-11.31-.46.71,17.71,163.69-3.27a8.65,8.65,0,0,1,8.79,8.33l4.35,92.33.14,0a30.51,30.51,0,0,1,13.79,6.48,28.93,28.93,0,0,1,3.41,41.57,29.89,29.89,0,0,1-20.53,10.28c-.58,0-1.17,0-1.75,0A29.94,29.94,0,0,1,404,290a30.73,30.73,0,0,1-5.59-7.21l-.07-.14-.15,0a.79.79,0,0,1-.24.05l-61.55-.07,3.66,9.94,0,0a.74.74,0,0,1,.33.59.35.35,0,0,1,0,.13v.16l7.74,21a.75.75,0,0,1-.44,1,.78.78,0,0,1-.26,0l-.2,0h-.1l-.16.05-34.88,2.29a.77.77,0,0,1-.8-.7.76.76,0,0,1,.7-.8l.21,0,0-.21a.73.73,0,0,1,0-.47l4.59-10a.89.89,0,0,1,.15-.35l10.34-22.61-27.89,1.22,0,.13a103.15,103.15,0,0,1-3.19,9.86c-.69,1.76-7.05,17.23-16,17.37H280c-7.56,0-16.51-6.26-22-12.47l-.15-.17-.14.17c-.77,1-1.48,1.81-2.19,2.59a.74.74,0,0,1-1.3-.49v-.09l-.08-.06a143.13,143.13,0,0,1-20.51-17.77l-.27-.29L228.64,321c-.35,2.89-.55,5.64.92,7.64a11.23,11.23,0,0,0,1.21,1.32c1,1,2.11,2.11,2.24,3.68a3.76,3.76,0,0,1-1.06,2.81l-.08.1,0,.11a307.82,307.82,0,0,1,23,60.89l0,.16.16,0,.11,0c.6-.06,1.21-.09,1.82-.09,2.46,0,8.55.55,11.86,5.65a12.55,12.55,0,0,1-.88,14.57,12.69,12.69,0,0,1-9.71,4.42,12.14,12.14,0,0,1-4.46-.83A13,13,0,0,1,246,409.12c.18-4.12,3-9.36,7.42-11l.16-.06-.05-.17a306.19,306.19,0,0,0-22.74-60.24l-.09-.17-.17.09a5.33,5.33,0,0,1-.9.38,7.56,7.56,0,0,1-2.09.27,19.61,19.61,0,0,1-3.1-.33,222.92,222.92,0,0,0-35.21-2.8c-6.15,0-12.37.26-18.49.77h-.18v.18a95.22,95.22,0,0,0,1.83,17.06,75.58,75.58,0,0,0,2.73,8.95c1.53,4.34,3.12,8.83,3.38,13.75l1.42,26.28s0,.06,0,.1l-.06.23.23.05,29.51-.34a5.4,5.4,0,0,1,5.41,5.22l.65,18.41a.76.76,0,0,1-.72.78h0a.75.75,0,0,1-.75-.73l-.44-12.61-65.54.57.22,12A.75.75,0,0,1,147.61,426.56ZM254.05,399.5c-3.87,1.31-6.44,6.05-6.6,9.69a11.42,11.42,0,0,0,7,10.82,10.56,10.56,0,0,0,3.93.74,10.81,10.81,0,0,0,9.3-16.68c-2.91-4.48-8.38-5-10.59-5a15.31,15.31,0,0,0-1.67.08l-.21,0-.13.07a.64.64,0,0,1-.39.27l-.18,0a.83.83,0,0,1-.32-.08l-.06,0Zm-102.21,4.82a3.86,3.86,0,0,0-3.81,3.91l.08,4,65.5-.57-.15-4.29a3.87,3.87,0,0,0-3.84-3.76ZM153,294.75a47.57,47.57,0,0,0-1.2,8,42.78,42.78,0,0,0,17,36.12l.32.23,0-.4c-.18-3.75-.22-7.53-.26-11.4l-.26-28.44-.16,0a70,70,0,0,1-15.15-4.22l-.2-.09Zm36.15,38.86a224.17,224.17,0,0,1,35.41,2.81,18.38,18.38,0,0,0,2.89.32,5.73,5.73,0,0,0,1.67-.22c1.23-.35,2.45-1.48,2.35-2.75-.08-1-.87-1.79-1.78-2.7a12.53,12.53,0,0,1-1.38-1.52c-1.79-2.44-1.58-5.64-1.21-8.71L232,281.15a.68.68,0,0,1,.21-.41.79.79,0,0,1,.15-.22.74.74,0,0,1,.51-.2.77.77,0,0,1,.55.24,141.24,141.24,0,0,0,21.5,18.89l.14.09.11-.13a57.34,57.34,0,0,0,11.14-19.86.71.71,0,0,1,.12-.2l.11-.16-.15-.11a80.54,80.54,0,0,1-7.49-6.17.74.74,0,0,1-.18-.16,82.26,82.26,0,0,1-5.9-6.15c-1.73-2-3.44-4.23-4.94-6.17a88.52,88.52,0,0,0-9.1-10.55c-6.59-6.15-16.22-9.14-29.45-9.14a114.5,114.5,0,0,0-12.45.74c-7.31.78-17.5,3.22-24.57,10.43-5.2,5.31-8.08,12.51-10.86,19.46l-.63,1.59c-.43,1.07-.86,2.13-1.3,3.2a137.42,137.42,0,0,0-6,16.74l0,.16.15.06a68,68,0,0,0,14.76,4.18l.22,0,0-2.34c0-4.41-.08-9.4,1.69-13.86a4.3,4.3,0,0,0,.39-2.84.52.52,0,0,0-.37-.32,1.93,1.93,0,0,0-.53-.06,3.44,3.44,0,0,1-.86-.11,2.23,2.23,0,0,1-1.41-1.22,3.14,3.14,0,0,1-.08-2.46,6.39,6.39,0,0,1,2.45-2.63.76.76,0,0,1,1,.17.7.7,0,0,1,.13.56.75.75,0,0,1-.3.49,5.09,5.09,0,0,0-1.93,2,1.59,1.59,0,0,0,0,1.23.77.77,0,0,0,.47.44,3.38,3.38,0,0,0,.51.05,3.36,3.36,0,0,1,.94.13,2.07,2.07,0,0,1,1.26,1.11c.59,1.25,0,3.07-.35,4-1.67,4.19-1.62,9-1.58,13.29l.29,32.32q0,3.42.1,6.89v.2l.2,0C176.8,333.86,183,333.61,189.19,333.61ZM342.81,305l-.09,0-24.62,1.45-4.48,9.79,32.8-2.15L343,304.91ZM267.6,280.29a58.57,58.57,0,0,1-8.8,17l-.09.12.1.12c3.7,4.23,12.89,12.24,21.14,12.24h.19c6.51-.1,12.28-10.37,14.66-16.42,1.37-3.48,2.42-7.15,3.43-10.71a94,94,0,0,1,4.41-13.08c.24-.53.49-1.07.74-1.6a28.16,28.16,0,0,0,2-5c.38-1.46.8-4.24-.62-6.48a12.12,12.12,0,0,0-1.82-2.08,18.42,18.42,0,0,1-1.54-1.64c-2.19-2.77-2.6-6.41-2.71-9.6l0-.53-.32.42c-.94,1.24-1.17,3.39-1.27,5.32a54,54,0,0,1-18.86,37.94.79.79,0,0,1-.48.18.75.75,0,0,1-.58-.27.73.73,0,0,1-.16-.41v-.1l-.09,0a80.11,80.11,0,0,1-9-5.4l-.21-.15Zm56.16,13.76-5,10.85,23.72-1.39L339,294Zm76.42-39.32a27.14,27.14,0,0,0-3.93,13.54,28,28,0,0,0,8.83,20.59,28.39,28.39,0,0,0,19.39,7.91c.56,0,1.11,0,1.67,0A28.37,28.37,0,0,0,445.62,287a27.57,27.57,0,0,0,6.79-20.37,28.52,28.52,0,0,0-.58-3.84l-.05-.21-26.32,10.14a.76.76,0,0,1-.27.05l-.08,0-.17.05a.79.79,0,0,1-.49.21.77.77,0,0,1-.44-.14L405,259a23.49,23.49,0,0,1-4.47-4.26l-.17-.2Zm-75.73,37.81,14-.08-6.23-16.92ZM261.15,273l.35.31a78.07,78.07,0,0,0,16.35,11.13l.11.06.1-.09a51.25,51.25,0,0,0,10.1-12.19l.18-.3Zm133.3-4.54-.09,0L304,270.28l-.05.11a89,89,0,0,0-4,11.71l-.07.25,28-1.23H328l.06-.1,3.56-7.79a.75.75,0,0,1,.68-.44.67.67,0,0,1,.31.07.73.73,0,0,1,.4.44l0,.05,0,0a.77.77,0,0,1,.3.63.61.61,0,0,1,0,.13v.06l2.55,6.91,61.76.08-.12-.27a28.79,28.79,0,0,1-2.78-12.35v-.24ZM247.74,232.93l1,25.52a.79.79,0,0,1-.1.37l-.06.11.53.68c1.55,2,3.16,4.07,4.82,6a78.33,78.33,0,0,0,5.59,5.85l.06,0,10.2-.41-.69-17.86-19.07.52a.75.75,0,1,1,0-1.5l19-.52-.74-19.35Zm176.44,8c-.92,0-1.85.05-2.76.14l-.2,0,0,.2c1.83,9.7,3.21,19.66,4.1,29.6l0,.25,26-10-.05-.16a27.68,27.68,0,0,0-8.95-13.38A28.63,28.63,0,0,0,424.18,240.89ZM291.66,251.14a.79.79,0,0,1,.78.73.75.75,0,0,1-.73.77l-21.13.58.69,17.84,17-.67a.72.72,0,0,1,.56.23l.18.2.12-.23a52,52,0,0,0,6.49-22.37c.11-2.11.33-6.5,3.58-7.61a.64.64,0,0,1,.24,0,.73.73,0,0,1,.43.13.75.75,0,0,1,.32.61c.07,4.12.3,7.75,2.43,10.44a17.92,17.92,0,0,0,1.41,1.51,12.86,12.86,0,0,1,2,2.35,9.67,9.67,0,0,1,.81,7.66,29.32,29.32,0,0,1-2.07,5.21l-.12.28,14-.29-.64-15.2-.13,0-.11,0-9,.21a.75.75,0,1,1,0-1.5l8.66-.22v-.19c-.28-6.06-.37-12.3-.27-18.55l-.07-1.76-23.33.59.35,12a.75.75,0,0,1-1.5,0l-.35-12-22.43.56.75,19.35Zm127.89-9.84a28.5,28.5,0,0,0-18.31,11.79l-.09.12.11.11a22.67,22.67,0,0,0,4.57,4.43l18,13.1,0-.41c-.89-9.78-2.25-19.53-4.05-29l0-.18Zm-89.33,11.56-10.75.37.64,15.21L343.5,268l-.6-15.44Zm14.18-.36.6,15.44,26.68-.55-1-15.56Zm27.75-.71,1,15.57,21.15-.43a.93.93,0,0,1,.24,0l.22.07,0-.23a29.76,29.76,0,0,1,18.85-25.4l.29-.12-.24-.2a.75.75,0,0,1-.26-.53l-.58-11.83-.2,0-19.84.51,1.46,20.46,3.9-.1a.76.76,0,0,1,0,1.51l-3.82.09.51,7.21a.75.75,0,0,1-.18.54.79.79,0,0,1-.52.26h0a.77.77,0,0,1-.8-.7l-.52-7.27Zm-142.72-9.34.11.05a31.49,31.49,0,0,1,10.22,6.28,71.4,71.4,0,0,1,7.05,7.89l.36.46-2.48-63.75a.75.75,0,0,1,.07-.33l0-.12a2.68,2.68,0,0,1,.12-.37.82.82,0,0,1,.74-.65l166.15-3.22a.76.76,0,0,1,.77.74.74.74,0,0,1-.11.38l0,.06.06.23L415,240.49l-.08.47.29-.1a28.18,28.18,0,0,1,6-1.31,26.79,26.79,0,0,1,3-.16,28.43,28.43,0,0,1,3.55.22l.22,0L425,177.88l-.21,0-193.87,3.73-1.67-.09-1.51-.09Zm94-11.43-4.8.12,0,1.78.78,18.71,10.91-.28,12.52-.44L342,230.75Zm20.09-.51.8,20.48,26.2-.66-1.36-20.47Zm27.14-.69,1.37,20.47,20.74-.53-1.46-20.46ZM196.31,225a.85.85,0,0,1-.14.11l-.09.06v.11a41.62,41.62,0,0,1-1.56,14.59l-.12.31.29,0c.68-.1,1.35-.19,2-.26,4.16-.44,7.85-.68,11.26-.73h.24l-3-11.63a.75.75,0,0,1,.26-.77l.06,0v-.07a.62.62,0,0,1,0-.2.75.75,0,0,1,.69-.44.7.7,0,0,1,.31.07,8.91,8.91,0,0,0,7.44-.11,8.87,8.87,0,0,0,4.62-5.84c.78-3.41-.5-6.78-1.85-10.34a32.81,32.81,0,0,1-2.1-7.12l-.06-.47-.28.39a30.85,30.85,0,0,1-2.6,3.18l-.11.08a1.12,1.12,0,0,1-.33.35.82.82,0,0,1-.37.1.73.73,0,0,1-.65-.4,2.83,2.83,0,0,0-2.23-1.35,2.3,2.3,0,0,0-.37,0,2.74,2.74,0,0,0-2.09.86A2.84,2.84,0,0,0,205,208a2.88,2.88,0,0,0,1.63,2,.73.73,0,0,1,.44.93,29.35,29.35,0,0,1-9.89,13.92.74.74,0,0,1-.45.15.69.69,0,0,1-.26-.06l-.11,0Zm51.37,6.39,20.54-.52-.7-18.14-19.41.45H247ZM269,212.74l.69,18.13,22.44-.57-.53-18.09Zm24.11-.56.53,18.09,23.31-.59-.76-18Zm24.58-.57.76,18,4.9-.08L342,229l-.7-18Zm25.06-.58.7,18,25.6-.65-1.2-17.91Zm26.61-.62,1.19,17.91,20.64-.52L390,209.94Zm22.06-.51,1.28,17.86,19.86-.5.22,0,0-.22-.86-17.63ZM195.24,223.32a.71.71,0,0,1,.62.35l0,.05.17.08.19,0a28.13,28.13,0,0,0,9.17-12.5l.05-.14-.12-.08a4.55,4.55,0,0,1-1.78-2.67,4.35,4.35,0,0,1,.85-3.9,4.26,4.26,0,0,1,3.21-1.37l.55,0a4.62,4.62,0,0,1,2.62,1.18l.14.13.13-.14a29,29,0,0,0,7.13-14.9l0-.28-.27.06a11.48,11.48,0,0,1-2.55.26,30.67,30.67,0,0,1-5.71-.73c-1.35-.26-2.71-.52-4-.64q-.71-.06-1.44-.06a18.24,18.24,0,0,0-2.3.15,1.08,1.08,0,0,1-.37.1l-.17,0c-7.33,1.16-13.74,6.78-15.59,13.66-2.14,8,1.92,17.38,9.26,21.4l0,0Zm51-29.92.71,18.32h1.18l19.38-.45-.68-17.66V193Zm22.09-.42v.6l.68,17.65,22.62-.52-.41-13.88-.24-4.29Zm24.15-.47.24,4.25.41,13.92,23.07-.54-.76-18.08ZM316.9,192l.76,18.08,23.56-.55-.46-11.81-.67-6.17Zm24.7-.48.66,6.09.46,11.89,25.06-.58-1.12-16.86-.05-.05a.75.75,0,0,1-.22-.53,1.1,1.1,0,0,1,0-.16l.07-.24-.24,0ZM368,191l.08.24a.48.48,0,0,1,.05.18l1.17,17.45,20.55-.47-1.21-17.09a1,1,0,0,1-.06-.3v-.41Zm22.09-.43,1.27,17.79,20.5-.47L411,190.21ZM193.89,174.26l-38.4,1.68a6.37,6.37,0,0,0-6.09,6.31l-.07,9.65a6.29,6.29,0,0,0,1.87,4.56,6.37,6.37,0,0,0,4.55,1.86l29.78-.3h.13l.13-.1a21.56,21.56,0,0,1,14.84-11.09l.16,0-.25-6.45a6.38,6.38,0,0,0-6.37-6.11Zm229.82-19.83c-41.71,1.88-83.82,2.43-121,2.91-30.51.4-56.83.75-75.44,1.75h-.18L227.7,180h.17l1.46.09h.13l1.5.09,193.73-3.71h.2l0-.2-1-21.82ZM209.83,110.84V111a462,462,0,0,1,.89,49.54v.19h14.92v-.19l-.24-8.73a8.76,8.76,0,0,1,8.57-9l17.1-.34-1.35-33.46ZM234,144.36a7.22,7.22,0,0,0-7.09,7.44l.16,5.8h.19c18.63-1,44.94-1.35,75.41-1.75,37.11-.48,79.17-1,120.94-2.91h.19l-.25-5.31a7.15,7.15,0,0,0-7.24-6.9Zm16.47-36.84a.67.67,0,0,1,.48.2.73.73,0,0,1,.24.52l.61,15,10.62.42v-29H240.36l.43,13.28Z"/><path class="cls-6" d="M354.71,320.46a.74.74,0,0,1-.66-.4A.76.76,0,0,0,354,320a4.14,4.14,0,0,1-.23-.35.73.73,0,0,1,0-.63,1.15,1.15,0,0,1,0-.25l9.08-20.56v-.06a.73.73,0,0,1,.34-.78l.06,0,.16-.36a.74.74,0,0,1,.69-.45.8.8,0,0,1,.3.06.75.75,0,0,1,.38,1l-.25.58,11.08,19.28a.66.66,0,0,1,.08.45v.09l.06.06a.75.75,0,0,1,.22.49.73.73,0,0,1-.2.54.79.79,0,0,1-.52.24l-19.8.7-.05.1a.74.74,0,0,1-.31.32A.9.9,0,0,1,354.71,320.46Zm.82-2,18.57-.67-10.34-18Z"/><path class="cls-6" d="M88.36,331.71A4.54,4.54,0,0,1,84,327.63a4.59,4.59,0,0,1,3.63-4.73l.14,0a.72.72,0,0,1,.57.28l.14.17.14-.17a.78.78,0,0,1,.57-.26l.16,0a4.61,4.61,0,0,1,3.49,4.84,4.56,4.56,0,0,1-4.42,3.95Zm0-7.58a.78.78,0,0,1-.43.24,2.94,2.94,0,1,0,1.13,0,.73.73,0,0,1-.42-.25l-.14-.18Z"/><path class="cls-6" d="M452.23,150.21a.76.76,0,0,1-.75-.75.67.67,0,0,1,.19-.49l.06-.08,0-.09a7.58,7.58,0,0,1,3.91-8.28,13,13,0,0,1,1.43-.58,8.08,8.08,0,0,0,1.76-.78c.72-.46,1.29-1.38,1-2a.74.74,0,0,1-.07-.34v-.11l-.09-.06a6.05,6.05,0,0,1-2.2-5.64,6.22,6.22,0,0,1,3.16-5.29,4.4,4.4,0,0,1,1.84-.42,4.29,4.29,0,0,1,2.78,1.08,7,7,0,0,1,2.23,6.67,6.12,6.12,0,0,1-2.4,3.47l-.1.07,0,.12a.79.79,0,0,1-.1.53.54.54,0,0,0-.05.41,1.43,1.43,0,0,0,.61.81,5,5,0,0,0,1.56.53c.29.07.53.12.77.19a8.07,8.07,0,0,1,5.63,9.81.73.73,0,0,1-.28.41l-.05,0,0,.06a.73.73,0,0,1-.69.49l-20,.28Zm6.09-9.14-.76.29a10.67,10.67,0,0,0-1.28.51,6.08,6.08,0,0,0-3.09,6.68l0,.14,18.73-.25,0-.15a6.56,6.56,0,0,0-4.64-7.71l-.28-.07-.11.17a.78.78,0,0,1-.08.23,5,5,0,0,1-8.33.23l-.09-.12Zm3.05-3.57a3.6,3.6,0,0,1-1.42,2.68l-.14.12.11.14a3.66,3.66,0,0,0,2.77,1.35,3.56,3.56,0,0,0,2.77-1.47l.14-.19-.23-.09a4.65,4.65,0,0,1-.74-.36,2.88,2.88,0,0,1-1.27-1.74,2.46,2.46,0,0,1-.05-.49v-.22l-.22,0a5.16,5.16,0,0,1-.9.09,6,6,0,0,1-.61,0l-.22,0Zm1.05-10.75a3,3,0,0,0-1.2.28,4.85,4.85,0,0,0-2.3,4.06,4.64,4.64,0,0,0,1.51,4.24,3.07,3.07,0,0,0,1.76.53,3.53,3.53,0,0,0,1.6-.39,4.5,4.5,0,0,0,2.2-2.85,5.62,5.62,0,0,0-1.75-5.14A2.8,2.8,0,0,0,462.42,126.75Z"/><path class="cls-6" d="M479,275.22l-.2,0a.74.74,0,0,1-.55-.74c0-1.44,0-3,0-4.83v-.21l-.2,0c-1.2.14-2.4.28-3.59.46h-.11a.74.74,0,0,1-.74-.64.76.76,0,0,1,.14-.56.74.74,0,0,1,.49-.29c1.38-.2,2.76-.36,3.81-.48l.17,0v-.17c0-.92-.05-1.83-.09-2.75v-.19l-4.28.26a.75.75,0,0,1-.79-.7.74.74,0,0,1,.7-.79l4.31-.27v-.19c-.09-1.71-.19-3.22-.3-4.62a.75.75,0,0,1,.69-.81h0a.78.78,0,0,1,.81.69c.11,1.4.2,2.87.3,4.65v.19l4.53-.28-.19-4.19a.73.73,0,0,1,.2-.54.69.69,0,0,1,.52-.24h0a.72.72,0,0,1,.78.71l.19,4.17,3.62-.22a.75.75,0,0,1,.8.7.76.76,0,0,1-.7.8l-3.66.22.13,3h.19c1.79-.07,3.37-.11,4.83-.11l1.48,0a.72.72,0,0,1,.53.23.75.75,0,0,1-.52,1.27h-1.51c-1.43,0-3,0-4.74.1h-.19l.19,4.34,0,0a.72.72,0,0,1,.1.59l-.11.4a.75.75,0,0,1-.73.56.78.78,0,0,1-.75-.72l-.22-5.15h-.19c-1.35.08-2.77.19-4.23.33h-.17v.18c0,1.19,0,2.38,0,3.56v.1l.08.05a.75.75,0,0,1,.21,1l-.4.72A.78.78,0,0,1,479,275.22Zm.63-10.52v.18c0,.89.06,1.78.08,2.67v.2l.2,0c1.48-.14,2.84-.24,4.18-.32h.18l-.13-3Z"/><path class="cls-6" d="M329.22,101.89l-.2,0a.77.77,0,0,1-.56-.74c0-1.44,0-3,0-4.84v-.21l-.21,0c-1.2.13-2.4.28-3.59.45h-.11a.75.75,0,0,1-.74-.64.74.74,0,0,1,.14-.56.77.77,0,0,1,.49-.3c1.38-.2,2.76-.36,3.82-.48l.17,0V94.4c0-.91-.05-1.83-.09-2.74v-.19l-4.29.26a.76.76,0,0,1-.79-.7.73.73,0,0,1,.19-.55.72.72,0,0,1,.51-.25l4.31-.27v-.18c-.09-1.71-.19-3.23-.3-4.62a.75.75,0,0,1,.69-.81h0a.77.77,0,0,1,.81.68c.11,1.4.21,2.88.3,4.65v.19l4.53-.28-.18-4.19a.75.75,0,0,1,.71-.78h0a.76.76,0,0,1,.78.72l.18,4.16,3.63-.22a.75.75,0,0,1,.79.7.74.74,0,0,1-.18.55.76.76,0,0,1-.52.25l-3.65.22.13,3h.18c1.81-.08,3.4-.11,4.86-.11h1.46a.72.72,0,0,1,.52.23.74.74,0,0,1,.21.54.78.78,0,0,1-.77.73H341c-1.43,0-3,0-4.76.11h-.19l.19,4.34,0,0a.77.77,0,0,1,.09.59l-.11.4a.74.74,0,0,1-.72.56.75.75,0,0,1-.75-.71l-.23-5.15h-.19c-1.36.08-2.78.19-4.22.32l-.18,0v.17c0,1.19,0,2.38,0,3.57v.09l.07.06a.75.75,0,0,1,.21,1l-.4.71A.73.73,0,0,1,329.22,101.89Zm.62-10.52v.19c0,.89.06,1.77.08,2.66v.21l.2,0c1.46-.14,2.83-.25,4.17-.32h.19l-.13-3Z"/><path class="cls-6" d="M466,240.23a4,4,0,0,1-.69-.06,4.65,4.65,0,0,1-3.68-5,4.24,4.24,0,0,1,2.68-3.55,4.62,4.62,0,0,1,1.67-.3,4.9,4.9,0,0,1,3.16,1.13,4.25,4.25,0,0,1,1.33,4.25A4.68,4.68,0,0,1,466,240.23Zm0-7.43a3.24,3.24,0,0,0-1.13.2,2.69,2.69,0,0,0-1.73,2.35,3.14,3.14,0,0,0,2.45,3.34,2.28,2.28,0,0,0,.45,0,3.16,3.16,0,0,0,3-2.36,2.7,2.7,0,0,0-.83-2.79A3.39,3.39,0,0,0,466,232.8Z"/><path class="cls-6" d="M154.68,249.05a4.76,4.76,0,0,1-.84-.07,5.66,5.66,0,0,1-4.48-6.1,5.17,5.17,0,0,1,3.26-4.32,5.67,5.67,0,0,1,2-.37,6,6,0,0,1,3.86,1.39,5.16,5.16,0,0,1,1.6,5.16A5.67,5.67,0,0,1,154.68,249.05Zm0-9.35a4.32,4.32,0,0,0-1.49.26,3.62,3.62,0,0,0-2.3,3.12,4.16,4.16,0,0,0,3.25,4.42,3.92,3.92,0,0,0,.59.05,4.2,4.2,0,0,0,4-3.12,3.62,3.62,0,0,0-1.12-3.71A4.48,4.48,0,0,0,154.64,239.7Z"/><path class="cls-6" d="M463.49,325a.75.75,0,0,1-.75-.75V311.43a.76.76,0,0,1,.75-.75h7.66a.76.76,0,0,1,.75.75v12.81a.75.75,0,0,1-.75.75Zm.76-1.5h6.14v-11.3h-6.14Z"/><path class="cls-6" d="M478.13,325a.75.75,0,0,1-.75-.75V305.6a.76.76,0,0,1,.75-.75h7.65a.76.76,0,0,1,.76.75v18.64a.75.75,0,0,1-.76.75Zm.75-1.5H485V306.36h-6.15Z"/><path class="cls-6" d="M492.77,325a.75.75,0,0,1-.75-.75v-28a.76.76,0,0,1,.75-.75h7.65a.75.75,0,0,1,.75.75v28a.74.74,0,0,1-.75.75Zm.75-1.5h6.15V297h-6.15Z"/><path class="cls-6" d="M429.31,384.8a31.74,31.74,0,0,1-5.68-.51.72.72,0,0,1-.6-.61l0-.13-.13,0a40,40,0,0,1-29.71-51.68.74.74,0,0,1,.71-.52.59.59,0,0,1,.23,0l.09,0,.12,0a.72.72,0,0,1,.4-.12.64.64,0,0,1,.2,0,43.89,43.89,0,0,1,31.28,41.63l.36.06a67,67,0,0,0,2.51-35.57l0-.17-.18,0a4,4,0,0,1-.6.05,4.16,4.16,0,0,1-1.65-.34,5,5,0,0,1-2.77-5c.19-2.44,1.55-4.31,3.45-4.78a3.71,3.71,0,0,1,.88-.1,4.88,4.88,0,0,1,4,2.59,5.31,5.31,0,0,1-.06,5.71,4.56,4.56,0,0,1-1.51,1.34l-.12.07,0,.14a68.18,68.18,0,0,1-3.65,39.55l.33.18a29.72,29.72,0,0,1,25.43-14.07,29.32,29.32,0,0,1,6.15.65.74.74,0,0,1,.47.32.72.72,0,0,1,.1.57.7.7,0,0,1-.29.43l-.09.07,0,.12a.73.73,0,0,1,0,.42,32,32,0,0,1-29.63,19.68Zm17.33-13.29a.73.73,0,0,1,.61.31.75.75,0,0,1-.16,1.05,77.76,77.76,0,0,1-18.34,10.06l.06.36h.51a30.55,30.55,0,0,0,28.16-18.59l.09-.22-.23,0a27.74,27.74,0,0,0-4.74-.4,28.29,28.29,0,0,0-26.46,17.89l-.15.39.39-.14a76.19,76.19,0,0,0,19.82-10.53A.71.71,0,0,1,446.64,371.51ZM394.42,332.9A38.5,38.5,0,0,0,422.87,382l.71.16-.54-.48A82.92,82.92,0,0,1,402.77,354a.78.78,0,0,1,0-.58.73.73,0,0,1,.4-.41.66.66,0,0,1,.3-.07.75.75,0,0,1,.69.44,81.33,81.33,0,0,0,19.72,27l.25.23.06-.34a42.5,42.5,0,0,0-29.52-47.5l-.18,0Zm32.07,44.15a.73.73,0,0,1-.31.14l-.13,0-.07.7.35.11c.11-.2.23-.4.35-.59l.08-.15Zm1.68-48.52a2.39,2.39,0,0,0-.53.06c-1.26.31-2.16,1.66-2.3,3.44a3.54,3.54,0,0,0,1.88,3.55,2.64,2.64,0,0,0,1.06.22,3.24,3.24,0,0,0,2.59-1.33,3.77,3.77,0,0,0,0-4.05A3.4,3.4,0,0,0,428.17,328.53Z"/><path class="cls-6" d="M416.72,330.5a2,2,0,0,1-.47-.06A1.6,1.6,0,0,1,415,329a.75.75,0,0,1,.41-.69l.1-.05v-.12a.76.76,0,0,1,.43-.68,1.42,1.42,0,0,1,.61-.13,1.67,1.67,0,0,1,1.24.58,1.6,1.6,0,0,1,.24,1.89A1.52,1.52,0,0,1,416.72,330.5Z"/><path class="cls-6" d="M441.05,341.82a1.82,1.82,0,0,1-.95-.25,1.78,1.78,0,0,1-.8-1.93,1.62,1.62,0,0,1,.69-1.08l.05,0,0,0a1.62,1.62,0,0,1,.46-.62,1.8,1.8,0,0,1,1.16-.44,1.58,1.58,0,0,1,.77.2,2.18,2.18,0,0,1,.71,2.86,2.45,2.45,0,0,1-1.48,1.25A2.28,2.28,0,0,1,441.05,341.82Zm.45-2.61a.75.75,0,0,1-.49.71l-.15,0-.08.17v.08l.12.11H441a.71.71,0,0,0,.22,0,1,1,0,0,0,.58-.48.92.92,0,0,0,.05-.66Z"/><path class="cls-6" d="M491,381c-2.69,0-5.41-.09-8.08-.27a.76.76,0,0,1-.7-.81.74.74,0,0,1,.45-.61l.11-.05L482,352.65v-.19a.69.69,0,0,1-.06-.26.75.75,0,0,1,.75-.75l18.58-.12a.76.76,0,0,1,.76.75.76.76,0,0,1-.75.75l-17.78.11.71,24.94a.69.69,0,0,1,0,.23l0,1.23h.17c2.17.12,4.37.18,6.55.18a117.73,117.73,0,0,0,12.88-.71l.17,0-1.51-26.38a.74.74,0,0,1,.19-.55.76.76,0,0,1,.51-.25h0a.77.77,0,0,1,.8.71L505.58,379l0,.05a.62.62,0,0,1,.16.35.76.76,0,0,1-.15.55.8.8,0,0,1-.51.29A118.49,118.49,0,0,1,491,381Z"/><path class="cls-6" d="M490.12,360.51a.76.76,0,0,1,0-1.51l5.35.27a.76.76,0,0,1,.52.25.75.75,0,0,1-.56,1.25Z"/><path class="cls-6" d="M496,367.68a.59.59,0,0,1-.23,0,11.7,11.7,0,0,0-3.58-.56,11.38,11.38,0,0,0-1.66.12h-.12a.76.76,0,0,1-.74-.64.8.8,0,0,1,.15-.56.75.75,0,0,1,.49-.3,14.72,14.72,0,0,1,1.88-.13,13.12,13.12,0,0,1,4,.63.79.79,0,0,1,.44.38.75.75,0,0,1,.05.57A.76.76,0,0,1,496,367.68Z"/><path class="cls-6" d="M490.4,373.78a.73.73,0,0,1-.52-.24.78.78,0,0,1-.21-.54.77.77,0,0,1,.72-.73l5.64.19a.71.71,0,0,1,.52.24.69.69,0,0,1,.2.53.74.74,0,0,1-.75.73Z"/><path class="cls-6" d="M392.1,408.32a.76.76,0,0,1-.68-.41.76.76,0,0,1,.29-1l.08-.05v-.09a.76.76,0,0,1,.11-.35,141.18,141.18,0,0,0,7.31-12.3.76.76,0,0,1,.67-.41.73.73,0,0,1,.35.09,2.16,2.16,0,0,1,.5.53L406,406.71a.78.78,0,0,1,0,.58.8.8,0,0,1-.4.41.77.77,0,0,1-.3.06l-12.41.28-.46.2A.64.64,0,0,1,392.1,408.32Zm7.57-11.86c-1.8,3.32-3.76,6.6-5.82,9.76l-.19.29,10.52-.23-4.32-10.16Z"/><path class="cls-6" d="M352.62,403.73a4.67,4.67,0,0,1-4.22-2.64,4.22,4.22,0,0,1,.43-4.41,4.94,4.94,0,0,1,3.84-1.86,4,4,0,0,1,.7.06,4.23,4.23,0,0,1,3.35,2.91,4.65,4.65,0,0,1-2.58,5.66A4.06,4.06,0,0,1,352.62,403.73Zm.05-7.41a3.47,3.47,0,0,0-2.65,1.27,2.72,2.72,0,0,0-.25,2.9,3.14,3.14,0,0,0,2.82,1.75,2.54,2.54,0,0,0,1-.19,3.11,3.11,0,0,0,1.71-3.75,2.68,2.68,0,0,0-2.16-1.94A3.89,3.89,0,0,0,352.67,396.32Z"/><path class="cls-6" d="M305.66,369.34a.74.74,0,0,1-.54-.23.75.75,0,0,1-.2-.55,83.18,83.18,0,0,0-.45-12.63.75.75,0,0,1,.66-.83h0a.76.76,0,0,1,.82.66,84.35,84.35,0,0,1,.49,11.89v.2l9,.06a.74.74,0,0,1,.74.75.76.76,0,0,1-.75.75Z"/><path class="cls-6" d="M270,343.54a2,2,0,0,1-1.05-.31,2.08,2.08,0,0,1-1-1.53,2.37,2.37,0,0,1,1.95-2.5H270a.76.76,0,0,1,.71.49l0,.07.06,0a1.26,1.26,0,0,1,.55.59,1.94,1.94,0,0,1-.68,3A1.74,1.74,0,0,1,270,343.54Zm0-2.19a.9.9,0,0,1-.32.09l-.33,0,.18.27a.8.8,0,0,0,.23.22.62.62,0,0,0,.27.09h0l.08,0a.47.47,0,0,0,.17-.54l0,0-.18-.15Z"/><path class="cls-6" d="M307.27,389.58a19.56,19.56,0,0,1-8.67-2.07l-.23-.12-.09.66a.77.77,0,0,1-.74.65l-31.83.28a.76.76,0,0,1-.75-.75.69.69,0,0,1,.28-.57l.06-.05v-.37a199.15,199.15,0,0,0-1.45-30,.73.73,0,0,1,.31-.68.79.79,0,0,1,.61-.33l23.07-.12a.93.93,0,0,1,.24.05l.15,0,.07-.14a22.33,22.33,0,0,1,5.48-6.69l.41-.34-31.07.54a.75.75,0,0,1-.76-.74.71.71,0,0,1,.12-.4l0-.05-.71-12.65a.89.89,0,0,1,0-.15v-.12l0-.14a.76.76,0,0,1,.74-.76l36.07-.55a.74.74,0,0,1,.72.54.86.86,0,0,1,.24.59l-.18,10a.71.71,0,0,1-.25.54l.2.31a20,20,0,0,1,7.42-1.61H307c11.56,0,19.86,9.83,21.21,19.34A23.88,23.88,0,0,1,323,381.76a20.4,20.4,0,0,1-14.54,7.78C308.08,389.56,307.68,389.58,307.27,389.58Zm-.48-43.7c-11.2.14-19.18,10.46-19.61,20a22.09,22.09,0,0,0,6.67,16.43,19.19,19.19,0,0,0,13.43,5.76l1.11,0a18.94,18.94,0,0,0,13.48-7.23,22.3,22.3,0,0,0,4.88-16.89c-1.6-11.29-11.3-18-19.76-18Zm-41.36,11.85,0,.21a201,201,0,0,1,1.38,28.78l0,.75,30.06-.27.06-.39,0-.13-.09-.13a23.09,23.09,0,0,1-4.06-3.16,23.61,23.61,0,0,1-7.12-17.58,22.72,22.72,0,0,1,1.73-7.84l.12-.28-.33,0a.67.67,0,0,1-.36-.07l0,0Zm-2.09-21.67.67,12,31.28-.54a.79.79,0,0,1,.51.2l.11.1.12-.08a23.15,23.15,0,0,1,2.82-1.53l-.11-.35-.1,0a.75.75,0,0,1-.74-.77l.17-9.58Z"/><path class="cls-6" d="M273.2,367.4a2,2,0,0,1-.68-.12,2.15,2.15,0,0,1-1.24-2.52.75.75,0,0,1,.73-.57l.17,0,.09,0,.07-.07a1.61,1.61,0,0,1,.86-.39h.19a1.72,1.72,0,0,1,1.29.61,1.79,1.79,0,0,1,.42,1.62,1.86,1.86,0,0,1-1,1.18A2,2,0,0,1,273.2,367.4Z"/><path class="cls-6" d="M271.81,377a.74.74,0,0,1-.74-.69.74.74,0,0,1,.68-.81l10.92-.93a.77.77,0,0,1,.81.69.79.79,0,0,1-.18.55.77.77,0,0,1-.51.26Z"/><path class="cls-6" d="M341.37,359h-.12l-.58-.09-.05,0a.75.75,0,0,1-.3.08.78.78,0,0,1-.76-.71l-.8-13.13a.76.76,0,0,1,.19-.54.74.74,0,0,1,.52-.25h0a.72.72,0,0,1,.35.08l.07,0,.08,0a4.06,4.06,0,0,1,1.31-.31h.13a2.34,2.34,0,0,1,2.15,1.26,2.67,2.67,0,0,1-.88,3l-.21.2-.32.27.42.05a8.33,8.33,0,0,1,1.25.26,4.52,4.52,0,0,1,2.87,2.32,4.59,4.59,0,0,1-1.41,5.15,9,9,0,0,1-3.07,1.7l-.09,0,0,.1A.75.75,0,0,1,341.37,359Zm-.38-2,.13.13.12,0a8.57,8.57,0,0,0,3-1.57,3.16,3.16,0,0,0,1.05-3.4,3.05,3.05,0,0,0-1.94-1.5,9.89,9.89,0,0,0-2.6-.3h-.21Zm.35-11.34a2.52,2.52,0,0,0-.9.24l-.12.05.14,2.4.29-.26.39-.33c.19-.16.35-.29.51-.44.38-.36.72-.92.55-1.28a.83.83,0,0,0-.77-.39h-.09Z"/><path class="cls-6" d="M350.25,358.86a.76.76,0,0,1-.75-.69.75.75,0,0,1,.53-.76l.15-.05,0-.15c-.18-2.16-.29-4.43-.32-6.74v-.06l0,0a.65.65,0,0,1-.11-.29.75.75,0,0,1,.1-.5l0,0v-.06c0-1,0-2,.05-2.94v-.13l-.12-.05a.75.75,0,0,1,.3-1.43l5.17,0v1.5l-3.86,0v.18c0,.77,0,1.55-.05,2.32v.19h.39a8.65,8.65,0,0,1,2.66.4.75.75,0,0,1,.44.36.74.74,0,0,1,.06.58.75.75,0,0,1-.72.52.91.91,0,0,1-.23,0,7.39,7.39,0,0,0-2.21-.33h-.38v.19c0,1.93.12,3.83.27,5.66v0l0,0a.74.74,0,0,1,.11.45l0,.22,4.39-.36a.75.75,0,1,1,.12,1.5l-5.93.49Z"/><path class="cls-6" d="M364.14,357.93a3.57,3.57,0,0,1-.65-.06,2.66,2.66,0,0,1-2-1.56.76.76,0,0,1,.21-.84.74.74,0,0,1,.49-.18.69.69,0,0,1,.37.1l.67.38a.74.74,0,0,1,.36.47l0,.11.11,0a2.55,2.55,0,0,0,.44,0,4.47,4.47,0,0,0,1.16-.19c.79-.21,2.17-.73,2.52-1.8a2.2,2.2,0,0,0-.42-2,4.16,4.16,0,0,0-2-1.29c-.2-.07-.4-.12-.6-.18a4.42,4.42,0,0,1-2.73-1.62,3.06,3.06,0,0,1,.88-3.94,4.52,4.52,0,0,1,2.79-.85,6.16,6.16,0,0,1,.95.07.76.76,0,0,1,.5.29.74.74,0,0,1,.14.56.76.76,0,0,1-.74.65h-.11a5.18,5.18,0,0,0-.75-.06,3,3,0,0,0-1.86.54,1.59,1.59,0,0,0-.53,1.95,3.21,3.21,0,0,0,1.87,1l.66.2a5.56,5.56,0,0,1,2.7,1.8,3.7,3.7,0,0,1,.66,3.37c-.43,1.31-1.66,2.27-3.55,2.78A5.72,5.72,0,0,1,364.14,357.93Z"/><path class="cls-6" d="M374.85,357.12a.76.76,0,0,1-.75-.72l0-.65a.76.76,0,0,1,0-.15l-.15-9.92-3-.18A.75.75,0,0,1,371,344l7.36.44a.75.75,0,0,1,0,1.5l-2.86-.17.16,10.59a.75.75,0,0,1-.73.76Z"/><path class="cls-6" d="M341.84,377a.75.75,0,0,1-.75-.74v-.51l0-7.8h-.2c-1,.05-1.87.13-2.67.22h0a.77.77,0,0,1-.83-.66.73.73,0,0,1,.16-.55.71.71,0,0,1,.5-.28,43.61,43.61,0,0,1,5.13-.3c.77,0,1.55,0,2.32.06a.75.75,0,0,1-.06,1.5h0c-.72,0-1.43-.05-2.13-.05h-.71l0,8.35a.75.75,0,0,1-.74.75Z"/><path class="cls-6" d="M351.07,377.1a.78.78,0,0,1-.22,0,.75.75,0,0,1-.53-.68l-.58-9.32a.77.77,0,0,1,.71-.8h0a.75.75,0,0,1,.79.71l.51,8.16.08.05a.79.79,0,0,1,.36.54.74.74,0,0,1-.14.56l-.38.51A.75.75,0,0,1,351.07,377.1Z"/><path class="cls-6" d="M372.53,376.39a.75.75,0,0,1-.69-.47l-3.13-7.69-3.31,6.84a.76.76,0,0,1-.68.43.8.8,0,0,1-.33-.08.75.75,0,0,1-.36-.94l0-.09-4.1-5.94-1.66,6.49a.75.75,0,0,1-.73.57l-.18,0a.73.73,0,0,1-.46-.34.76.76,0,0,1-.09-.57l2-7.8,0,0a.74.74,0,0,1,.2-.77l0,0v-.05a.75.75,0,0,1,.71-.53l.19,0a.73.73,0,0,1,.46.35.75.75,0,0,1,.08.57l-.06.24,4.35,6.31,3.23-6.67a.76.76,0,0,1,.68-.42.88.88,0,0,1,.32.07.89.89,0,0,1,.49.46l3.39,8.32.05,0a.76.76,0,0,1,.37.76l-.06.37a.75.75,0,0,1-.66.63Z"/><path class="cls-6" d="M378.39,376.08h-.79a.75.75,0,0,1-.52-.24.71.71,0,0,1-.2-.54l.05-.21,0-.07a.62.62,0,0,1-.11-.27,48.44,48.44,0,0,1-.82-8.59.76.76,0,0,1,.74-.81h4.53a.75.75,0,0,1,0,1.5h-3.75v.2c0,.92.07,1.84.14,2.71l0,.19,3.65-.34a.77.77,0,0,1,.81.68.76.76,0,0,1-.68.82l-3.63.33,0,.2c.13,1.06.26,1.95.42,2.78l0,.16h.16a22.47,22.47,0,0,0,5.53-.7.63.63,0,0,1,.19,0,.76.76,0,0,1,.65,1.14.76.76,0,0,1-.46.34A23.4,23.4,0,0,1,378.39,376.08Z"/><path class="cls-6" d="M167,192.11a.71.71,0,0,1-.44-.15c-1.8-1.31-3.6-2.7-5.34-4.12-1.22-1-2.79-2.56-2.33-4.48a3.44,3.44,0,0,1,3.43-2.42h.27a6.2,6.2,0,0,1,3.23,1.41l.1.07.11-.06a10,10,0,0,1,3.1-1.18,5.67,5.67,0,0,1,1.17-.13,3.84,3.84,0,0,1,1,.14,2.48,2.48,0,0,1,1.76,1.84,3.41,3.41,0,0,1-.78,2.48l-3.79,5.61a.77.77,0,0,1-.63.34h-.13l-.06.12a.69.69,0,0,1-.1.21A.75.75,0,0,1,167,192.11Zm-4.7-9.67a2,2,0,0,0-1.95,1.26c-.2.83.4,1.81,1.82,3s3.11,2.47,4.81,3.72l.18.13.1-.19,3.81-5.67a2.26,2.26,0,0,0,.56-1.36,1,1,0,0,0-.73-.68,2.23,2.23,0,0,0-.6-.08,4.22,4.22,0,0,0-.87.1,8.78,8.78,0,0,0-3.29,1.42.83.83,0,0,1-.43.13.75.75,0,0,1-.62-.32.67.67,0,0,1-.09-.21l0-.06-.05,0a4.77,4.77,0,0,0-2.46-1.13Z"/><path class="cls-6" d="M180.77,183.41a.76.76,0,0,1,0-1.51l5-.14a.77.77,0,0,1,.77.73.75.75,0,0,1-.73.77l-5,.15Z"/><path class="cls-6" d="M185.08,187.87l-3.81-.38a.75.75,0,0,1,.09-1.5l3.87.39a.75.75,0,0,1-.07,1.5Z"/><path class="cls-6" d="M165.67,214.69a4.44,4.44,0,0,1-1.77-8.57l.15-.05.19-.07a4.15,4.15,0,0,1,1.22-.19,4.45,4.45,0,0,1,1.59,8.65A4.21,4.21,0,0,1,165.67,214.69Zm-.22-7.37a2.68,2.68,0,0,0-.76.11h0l-.12,0a3.17,3.17,0,0,0-1.75,3.83,3.14,3.14,0,0,0,2.89,1.89,2.53,2.53,0,0,0,.87-.15,2.94,2.94,0,0,0-1.1-5.72Z"/><path class="cls-6" d="M177.18,219a3.07,3.07,0,0,1-2.83-2.73A3.22,3.22,0,0,1,176.5,213a.67.67,0,0,1,.24,0,.75.75,0,0,1,.68.44l.05.1h.11a2.63,2.63,0,0,1,1.72.8,2.72,2.72,0,0,1,.81,2,2.9,2.9,0,0,1-2.84,2.65Zm-.67-4.3a1.74,1.74,0,0,0-.67,1.44,1.53,1.53,0,0,0,1.39,1.35,1.41,1.41,0,0,0,1.37-1.22,1.18,1.18,0,0,0-.37-.88,1.14,1.14,0,0,0-.77-.37h-.1a.77.77,0,0,1-.59-.29l-.11-.15Z"/><path class="cls-6" d="M257.81,207.12a5.35,5.35,0,0,1-5.16-4.1,5,5,0,0,1,1.56-5.05,5.75,5.75,0,0,1,3.63-1.28,5.51,5.51,0,0,1,2,.38,5,5,0,0,1,3.05,4.32,5.34,5.34,0,0,1-4.36,5.67A4.74,4.74,0,0,1,257.81,207.12Zm0-8.93a4.2,4.2,0,0,0-2.66.93,3.43,3.43,0,0,0-1.06,3.59,3.93,3.93,0,0,0,3.71,2.91,4,4,0,0,0,.49,0,3.91,3.91,0,0,0,3.11-4,3.42,3.42,0,0,0-2.13-3.07A3.91,3.91,0,0,0,257.84,198.19Z"/><path class="cls-6" d="M305,226.09a.8.8,0,0,1-.4-.11.73.73,0,0,1-.3-.85l0-.1-5.29-6.32a.72.72,0,0,1-.14-.26l0-.07-.06,0a.72.72,0,0,1-.36-.63.75.75,0,0,1,.75-.74l9.95.1a.7.7,0,0,1,.52.23.75.75,0,0,1,.22.53.69.69,0,0,1-.15.41l-.06.09,0,.1a.73.73,0,0,1,0,.74l-4.08,6.57A.75.75,0,0,1,305,226.09Zm.15-2.41,3.18-5.11-7.53-.08Z"/><path class="cls-6" d="M351.94,204.65a.77.77,0,0,1-.57-.25.79.79,0,0,1-.19-.55.76.76,0,0,1,.25-.51l3.31-3-2.81-2.65a.75.75,0,0,1,.51-1.3.76.76,0,0,1,.52.21l2.91,2.73,2.13-1.9a.78.78,0,0,1,.5-.19.73.73,0,0,1,.56.25.75.75,0,0,1-.06,1.06l-2,1.82,2,1.9a.76.76,0,0,1,0,1.07.74.74,0,0,1-.54.23.75.75,0,0,1-.52-.2l-2.12-2-3.4,3A.78.78,0,0,1,351.94,204.65Z"/><path class="cls-6" d="M358.63,245.31a4.75,4.75,0,0,1-2.39-.64,4.59,4.59,0,0,1-2-5.27,4.48,4.48,0,0,1,4.34-3.46,4.79,4.79,0,0,1,4.44,3.3,4.42,4.42,0,0,1-1.36,5A4.88,4.88,0,0,1,358.63,245.31Zm-.05-7.87a3,3,0,0,0-2.89,2.35,3.1,3.1,0,0,0,1.31,3.58,3.2,3.2,0,0,0,1.63.43,3.39,3.39,0,0,0,2.1-.71,2.91,2.91,0,0,0,.87-3.36,3.28,3.28,0,0,0-3-2.29Z"/><path class="cls-6" d="M79.4,308.1a.76.76,0,0,1-.75-.72.74.74,0,0,1,.16-.48l.09-.12-.1-.12a.73.73,0,0,1-.09-.9L85.06,296l-.31-.52a.73.73,0,0,1-.09-.57.78.78,0,0,1,.34-.47.86.86,0,0,1,.38-.1.77.77,0,0,1,.44.14l.16.11.17-.27a.75.75,0,0,1,.63-.34.81.81,0,0,1,.37.09.76.76,0,0,1,.31,1l-.19.39a.85.85,0,0,1-.22.28l-.15.21-.07.1,6,10.08a.75.75,0,0,1-.25,1,.81.81,0,0,1-.3.1h-.07l0,.05a.79.79,0,0,1-.52.24Zm.58-1.53,11.12-.52-5.18-8.63Z"/><path class="cls-6" d="M325.27,127.73a.75.75,0,0,1-.51-1.31l3.4-3.1-23.52.72h-.31a.75.75,0,0,1,0-1.5l22.83-.7L324,119.58a.74.74,0,0,1-.18-1,.75.75,0,0,1,1-.18l5,3.6h.07a.77.77,0,0,1,.6.23.76.76,0,0,1-.05,1.06l-4.72,4.29A.74.74,0,0,1,325.27,127.73Z"/><path class="cls-6" d="M295.32,125a.76.76,0,0,1,0-1.51h2.25a.76.76,0,1,1,0,1.51Z"/><path class="cls-6" d="M304.4,420.93a.74.74,0,0,1-.49-.18l-7.4-6.35-5.38,5.54a.73.73,0,0,1-.54.23.73.73,0,0,1-.52-.21.8.8,0,0,1-.23-.53.74.74,0,0,1,.21-.53l5.87-6.06a.76.76,0,0,1,.54-.22.74.74,0,0,1,.49.18l7.37,6.32,5-5.86a.74.74,0,0,1,.57-.27.81.81,0,0,1,.45.15l8.19,6.06,6-5.62a.71.71,0,0,1,.51-.21.76.76,0,0,1,.46.16l7.38,5.67a.75.75,0,0,1,.28.5.71.71,0,0,1-.15.56.75.75,0,0,1-.59.29.7.7,0,0,1-.46-.16l-6.87-5.28-6,5.61a.71.71,0,0,1-.51.21.74.74,0,0,1-.45-.15l-8.14-6-5,5.9a.75.75,0,0,1-.51.26Z"/><path class="cls-6" d="M126.86,392a.75.75,0,0,1-.51-.26l-5-5.9-8.14,6a.77.77,0,0,1-.45.14.74.74,0,0,1-.51-.2l-6-5.62-6.87,5.29a.75.75,0,0,1-.45.16.74.74,0,0,1-.6-.3.75.75,0,0,1,.14-1.05l7.37-5.68a.78.78,0,0,1,1,.05l6,5.63,8.2-6.06a.72.72,0,0,1,.45-.15.78.78,0,0,1,.57.26l5,5.86,7.38-6.32a.77.77,0,0,1,.48-.18.73.73,0,0,1,.54.23l5.87,6.05a.78.78,0,0,1,.21.54.72.72,0,0,1-.23.53.76.76,0,0,1-.52.21.73.73,0,0,1-.54-.23l-5.37-5.55-7.41,6.35a.72.72,0,0,1-.49.18Z"/><path class="cls-6" d="M424.62,310.86A33.15,33.15,0,0,1,404.83,304a.77.77,0,0,1-.28-.5.75.75,0,0,1,.15-.56.76.76,0,0,1,.6-.29.69.69,0,0,1,.45.16,31.65,31.65,0,0,0,18.88,6.58H425a31.69,31.69,0,0,0,18.68-6.15.71.71,0,0,1,.44-.15.74.74,0,0,1,.61.31.75.75,0,0,1-.16,1.05A33.17,33.17,0,0,1,425,310.86Z"/><path class="cls-6" d="M479.41,218.09a19.9,19.9,0,0,1-13.65-5.62,21.16,21.16,0,0,1-6.83-16.17,20.69,20.69,0,0,1,4.54-12.05l.11-.14-3.4-3-.1,0-.18,0-6.85.17a.74.74,0,0,1-.59-.28l0,0-.05,0a.66.66,0,0,1-.31-.17l-6.12-5.92a.72.72,0,0,1-.22-.6v0l0-.08a.74.74,0,0,1,.15-.55.79.79,0,0,1,.5-.28,44,44,0,0,1,5-.25h.27a2.55,2.55,0,0,0,1.13-.16c.68-.36.77-1.48.76-2.12v-.45a6.43,6.43,0,0,1,.24-2.44.81.81,0,0,1,.21-.69.73.73,0,0,1,.36-.19.9.9,0,0,1,.39-.09.66.66,0,0,1,.37.1.76.76,0,0,1,.34.51v.06l6.21,6.15a.78.78,0,0,1,.2.44v.05l0,0a.75.75,0,0,1,.15.74,25.63,25.63,0,0,0-1.19,4.46l0,.1,3.78,3.39.13-.14a19.78,19.78,0,0,1,13.83-6.37H479c10.15,0,19,8.13,20.19,18.5a21.29,21.29,0,0,1-4.68,15.65,19.59,19.59,0,0,1-13.3,7.39A17.39,17.39,0,0,1,479.41,218.09Zm-14.83-32.81a19.73,19.73,0,0,0-4.15,11.08,19.93,19.93,0,0,0,6.36,15,18.43,18.43,0,0,0,12.63,5.21c.54,0,1.09,0,1.63-.08a18.18,18.18,0,0,0,12.28-6.85,19.82,19.82,0,0,0,4.35-14.54c-1.09-9.62-9.26-17.16-18.62-17.16h-.5a17.87,17.87,0,0,0-12.75,5.86l-.13.14,5.6,5,.12-.12a11,11,0,0,1,7.38-3.2h.3A11.59,11.59,0,0,1,490.33,196a11.87,11.87,0,0,1-2.61,8.74,11,11,0,0,1-7.45,4.14c-.33,0-.67,0-1,0a11.18,11.18,0,0,1-7.64-3.14,11.86,11.86,0,0,1-3.81-9,11.57,11.57,0,0,1,2.36-6.49l.11-.14-5.58-5Zm6.71,6a10.38,10.38,0,0,0-2,5.52,10.52,10.52,0,0,0,3.34,7.89,9.71,9.71,0,0,0,6.61,2.72,8.25,8.25,0,0,0,.86,0,9.47,9.47,0,0,0,6.42-3.58,10.4,10.4,0,0,0,2.29-7.63,10.19,10.19,0,0,0-9.73-9h-.29a9.33,9.33,0,0,0-6.28,2.67l-.15.14,5.11,4.56.12-.05a2.44,2.44,0,0,1,1-.26H479a2.7,2.7,0,1,1-2.9,2.72,2.6,2.6,0,0,1,.31-1.22l.07-.13-5-4.48Zm6.27,5.67a1.28,1.28,0,0,0,1.16,1.16h0A1.29,1.29,0,0,0,480,197a1.27,1.27,0,0,0-.87-1.2l-.28-.09,0,.29a.74.74,0,0,1-.18.58.75.75,0,0,1-.56.25.92.92,0,0,1-.28-.05l-.27-.11Zm-24.87-22.45a6.58,6.58,0,0,1-1.21.09c-1.14,0-2.17,0-3.14.09l-.43,0,5.25,5.08.1,0,5.34-.14-5.82-5.2Zm2.27-4.73c0,.17,0,1,0,1a4.4,4.4,0,0,1-.74,2.75l-.1.14,5.32,4.75.07-.31a29.29,29.29,0,0,1,.92-3.22l0-.12L455,169.3Z"/><path class="cls-6" d="M457.67,218.09a.72.72,0,0,1-.45-.15,18.35,18.35,0,0,1-5.31-22.31.74.74,0,0,1,.67-.42.81.81,0,0,1,.34.08.75.75,0,0,1,.33,1,17.06,17.06,0,0,0,4.87,20.44.76.76,0,0,1,.29.5.73.73,0,0,1-.14.55A.74.74,0,0,1,457.67,218.09Z"/><path class="cls-6" d="M89.33,272.36a28.31,28.31,0,0,1-20.35-9,28.21,28.21,0,0,1,16.39-47.83,26.52,26.52,0,0,1,3.67-.25,28.05,28.05,0,0,1,7.74,1.1l.24.06-.19-30.13.06-.3.16-.24.23-.16.13,0,.15,0,39.4-1.15a.75.75,0,0,1,.77.73.74.74,0,0,1,0,.12v.13l0,.15.38,47.85a.74.74,0,0,1-.43.68l-.2.09.12.19a.72.72,0,0,1,.13.37.76.76,0,0,1-.73.77l-20.3.56.07.23c.14.52.27,1,.38,1.57a28.59,28.59,0,0,1-5.85,23.52,28.16,28.16,0,0,1-21.19,11Zm-9.55-23.24-.1,0a12.6,12.6,0,0,0-4.25,1.47,7.89,7.89,0,0,0-3.16,5.76,24.92,24.92,0,0,0,.51,7.14.78.78,0,0,1-.31.75l-.19.14.18.15a26.38,26.38,0,0,0,16.87,6.31h.73a26.28,26.28,0,0,0,16.35-6.56l.14-.12-.13-.14a.78.78,0,0,1-.2-.51,26.23,26.23,0,0,0-1-8.66,9.83,9.83,0,0,0-5.26-6.17,16,16,0,0,0-2.74-.73l-1.22-.26.2.36a.74.74,0,0,1,0,.68,8.84,8.84,0,0,1-7.43,4.94l-.44,0a8.85,8.85,0,0,1-7.47-4.16.74.74,0,0,1-.09-.43v-.25Zm9.3-32.36a25.51,25.51,0,0,0-3.5.24,26.7,26.7,0,0,0-15.51,45.31l.77.77.41.4-.1-.56a23.86,23.86,0,0,1-.37-6.74,9.39,9.39,0,0,1,3.82-6.82,13.66,13.66,0,0,1,4.75-1.69l.1,0a11.24,11.24,0,0,0,4.27-1.59,3.45,3.45,0,0,0,1.51-3.44.75.75,0,0,1,0-.46l0-.15-.13-.08a6.27,6.27,0,0,1-1.41-1.12,8.44,8.44,0,0,1-1.65-7.62,6.72,6.72,0,0,1,4.14-5,5.86,5.86,0,0,1,2-.35,5.42,5.42,0,0,1,3.54,1.36A8.66,8.66,0,0,1,94.43,237a8,8,0,0,1-2.05,4.11l-.09.1.07.12a.79.79,0,0,1,0,.65c-.58,1.39.75,3.1,2.32,3.77a14.7,14.7,0,0,0,2.83.77,17.24,17.24,0,0,1,3,.82,11.25,11.25,0,0,1,6.12,7.08,25.72,25.72,0,0,1,1,8.24v.46l.33-.33a30.38,30.38,0,0,0,2.06-2.35,27.1,27.1,0,0,0,5.56-22.28C113.13,225.94,101.7,216.76,89.08,216.76Zm-2.29,26.1a5.11,5.11,0,0,1-2.18,4.41,8.4,8.4,0,0,1-2.32,1.17l-.23.09.14.2a7.43,7.43,0,0,0,6.19,3.46h.38a7.44,7.44,0,0,0,6.16-4.1.7.7,0,0,1,.28-.29l.35-.22-.4-.12a10.35,10.35,0,0,1-1-.36c-1.72-.73-3.44-2.52-3.38-4.53v-.29l-.27.11-.1.06a5.55,5.55,0,0,1-2,.38,6.45,6.45,0,0,1-1.35-.16l-.25-.06Zm1.42-13.49a4.14,4.14,0,0,0-1.44.26,5.23,5.23,0,0,0-3.18,3.92,7,7,0,0,0,1.29,6.23,4.86,4.86,0,0,0,3.5,1.53,3.91,3.91,0,0,0,1.46-.27A5.74,5.74,0,0,0,93,236.69a7.18,7.18,0,0,0-2.17-6.33A3.93,3.93,0,0,0,88.21,229.37ZM98.34,187l.19,29.63,0,.15.12.16a29.15,29.15,0,0,1,17.57,17.45l0,.13,20.6-.57-.13-.26a.71.71,0,0,1-.09-.33l-.38-47.47Z"/><path class="cls-6" d="M107.76,198a.75.75,0,0,1,0-1.5l18.06-.84a.77.77,0,0,1,.79.72.75.75,0,0,1-.72.78Z"/><path class="cls-6" d="M108.35,204.16a.74.74,0,0,1-.75-.69.74.74,0,0,1,.18-.55.77.77,0,0,1,.51-.26l2.7-.2a.77.77,0,0,1,.8.7.75.75,0,0,1-.18.54.77.77,0,0,1-.52.26Z"/><path class="cls-6" d="M115.64,204.5a.75.75,0,0,1-.75-.72.76.76,0,0,1,.73-.78l9.8-.38a.79.79,0,0,1,.78.72.73.73,0,0,1-.2.54.75.75,0,0,1-.52.24Z"/><path class="cls-6" d="M108.54,210.66a.75.75,0,1,1,0-1.5h10.57a.75.75,0,0,1,0,1.5Z"/><path class="cls-6" d="M123,211.62a.75.75,0,1,1,0-1.5h1.92a.75.75,0,0,1,0,1.5Z"/><path class="cls-6" d="M112,217.58l-.21,0a4.64,4.64,0,0,0-1.24-.17,4.57,4.57,0,0,0-1.23.17l-.21,0a.75.75,0,0,1-.72-.54.78.78,0,0,1,.07-.58.7.7,0,0,1,.45-.35,5.71,5.71,0,0,1,1.64-.24,5.78,5.78,0,0,1,1.65.24.75.75,0,0,1,.45.35.75.75,0,0,1-.65,1.12Z"/><path class="cls-6" d="M118.34,217.58a.74.74,0,0,1-.75-.73.74.74,0,0,1,.73-.77l6.91-.2a.77.77,0,0,1,.78.74.76.76,0,0,1-.74.77l-6.91.19Z"/><path class="cls-6" d="M116.59,224.84a.76.76,0,0,1-.75-.7.74.74,0,0,1,.19-.55.72.72,0,0,1,.51-.25l8.68-.57a.77.77,0,0,1,.8.7.77.77,0,0,1-.71.8Z"/><path class="cls-6" d="M88.5,174.78h-.13l-.55-.1a.76.76,0,0,1-.59-.58V174l0,0a.69.69,0,0,1-.21-.5l-.1-10.45,0-.05a.77.77,0,0,1-.12-.35A.74.74,0,0,1,87,162a.76.76,0,0,1,.6-.32.73.73,0,0,1,.36.1l0,0h.63c1.61,0,3.64.19,5,1.62a5.05,5.05,0,0,1,1.11,4.79,7.83,7.83,0,0,1-2.66,3.93,18.41,18.41,0,0,1-2.82,1.88l-.08,0v.09A.74.74,0,0,1,88.5,174.78Zm-.11-11.44.08,9.45.28-.16a14.59,14.59,0,0,0,2.4-1.61,6.48,6.48,0,0,0,2.18-3.16,3.6,3.6,0,0,0-.74-3.36c-1-1-2.61-1.16-3.9-1.16Z"/><path class="cls-6" d="M105.71,173.37a.76.76,0,0,1-.53-.21l-6-5.89.28,5.15a.68.68,0,0,1-.19.54.72.72,0,0,1-.51.25h0a.76.76,0,0,1-.79-.71l-.55-10.22,0-.07a.73.73,0,0,1,.08-.55.78.78,0,0,1,.46-.35,8.18,8.18,0,0,1,2-.31,4.18,4.18,0,0,1,1.09.13,3.1,3.1,0,0,1,2.41,2.5,3.17,3.17,0,0,1-1.14,2.66,5.47,5.47,0,0,1-1,.66l-.22.12,5.12,5a.75.75,0,0,1-.53,1.29ZM100,162.51a4.76,4.76,0,0,0-.87.08l-.16,0,.21,3.79.27-.18.11-.07a6.42,6.42,0,0,0,1.78-1,1.66,1.66,0,0,0,.64-1.35,1.62,1.62,0,0,0-1.27-1.22A2.66,2.66,0,0,0,100,162.51Z"/><path class="cls-6" d="M108.08,173.63a.72.72,0,0,1-.29-.06.76.76,0,0,1-.4-1l4.31-10.19a.75.75,0,0,1,.57-.44h.06l0-.05a.77.77,0,0,1,.33-.07.75.75,0,0,1,.66.4l5.36,9.88a.71.71,0,0,1,.06.57.73.73,0,0,1-.36.45.74.74,0,0,1-.36.09.76.76,0,0,1-.66-.39l-.9-1.67-.18.21a.7.7,0,0,1-.55.28l-6.44.18-.57,1.35A.73.73,0,0,1,108.08,173.63ZM110,170.3l6-.17L112.64,164Z"/><path class="cls-6" d="M121.75,173.6a.73.73,0,0,1-.67-.71l-.26-6.13,0-.1,0-.09-.19-4.56-.05,0a.71.71,0,0,1-.2-.48.74.74,0,0,1,.74-.76l4.63-.08a.77.77,0,0,1,.76.74.78.78,0,0,1-.21.54.8.8,0,0,1-.53.23l-3.63,0,.15,3.54,2.54-.32a.76.76,0,0,1,.83.65.71.71,0,0,1-.15.56.75.75,0,0,1-.5.28l-2.66.34.19,4.36,0,0a.74.74,0,0,1,.16.67l-.17.71a.75.75,0,0,1-.73.57Z"/><path class="cls-6" d="M132.35,172.85a.76.76,0,0,1-.75-.71c-.19-3.3-.25-6.7-.18-10.11v-.18h-.18c-.81,0-1.61-.06-2.41-.11a.75.75,0,0,1,0-1.5c2,.12,4,.18,6,.18a.77.77,0,0,1,.8.75.79.79,0,0,1-.8.75h-1.25l-.65,0v.19c-.07,3.19,0,6.34.14,9.35a.88.88,0,0,1,.05.33l0,.38a.74.74,0,0,1-.74.72Z"/><path class="cls-6" d="M103.41,279.48a.75.75,0,0,1-.73-.58.76.76,0,0,1,.1-.57.71.71,0,0,1,.46-.33,32.88,32.88,0,0,0,21.9-17.79.75.75,0,0,1,.68-.43.74.74,0,0,1,.32.07.76.76,0,0,1,.36,1,34.42,34.42,0,0,1-22.92,18.61Z"/><path class="cls-6" d="M154.64,410a1.21,1.21,0,0,1-.82-.31,1.18,1.18,0,0,1-.31-1.29,1.09,1.09,0,0,1,.45-.58,1.46,1.46,0,0,1,.52-.43,1.25,1.25,0,0,1,.57-.13,1.17,1.17,0,0,1,.52.12.73.73,0,0,1,.39.42,1.73,1.73,0,0,1-.19,1.63,1.39,1.39,0,0,1-1,.56Z"/><path class="cls-6" d="M160.68,409.54A.75.75,0,0,1,160,409a1,1,0,0,1-.26-.51,1.38,1.38,0,0,1,.83-1.4,1.55,1.55,0,0,1,.66-.15,1.26,1.26,0,0,1,.94.39.74.74,0,0,1,.22.48.81.81,0,0,1-.17,1.05l-.05,0V409a.76.76,0,0,1-.73.55Z"/><path class="cls-6" d="M166.55,409.2a1.2,1.2,0,0,1-.91-.4.72.72,0,0,1-.2-.44v-.05l0,0a.77.77,0,0,1-.13-.46,1.31,1.31,0,0,1,1.18-1.19.86.86,0,0,1,.22,0,1.3,1.3,0,0,1,1.25.83,1.32,1.32,0,0,1-.63,1.55A1.45,1.45,0,0,1,166.55,409.2Z"/><path class="cls-6" d="M280.52,318.91a25.6,25.6,0,0,1-12.6-3.51.74.74,0,0,1-.28-1,.73.73,0,0,1,.65-.38.69.69,0,0,1,.37.1,24.13,24.13,0,0,0,11.86,3.31,18.36,18.36,0,0,0,4.8-.62c5.78-1.59,10.26-6.43,10.89-11.77a.76.76,0,0,1,.75-.67.78.78,0,0,1,.59.29.76.76,0,0,1,.16.55c-.7,5.94-5.63,11.31-12,13.05A19.66,19.66,0,0,1,280.52,318.91Z"/></g></g></svg>